<svg width="71" height="55" viewBox="0 0 71 55" fill="none" xmlns="http://www.w3.org/2000/svg">
<path d="M35.3833 11.9005C38.8026 11.975 43.0174 7.96619 41.015 5.19359C39.4496 3.02612 37.2828 2.75675 35.2662 2.79827C33.2713 2.83934 31.4259 3.1686 29.9965 5.19359C28.0592 7.93812 32.0247 11.8272 35.3833 11.9005Z" fill="#F9E547"/>
<path d="M50.3976 50.5804C42.923 45.5641 59.1654 28.7973 50.2531 27.5302C41.9354 26.3477 40.2511 44.8346 39.2699 46.0282C38.2888 47.2217 33.2708 47.657 31.7551 46.0282C30.2395 44.3993 28.8009 27.0098 20.772 28.325C12.195 29.73 27.8986 45.6056 20.772 50.5804C15.7972 54.0531 3.64054 56.4337 5.23655 50.5804C13.6452 19.7421 -8.93642 0 5.23655 0C19.4095 0 15.2342 0 19.2545 0C23.2749 0 22.8801 15.1349 35.2153 14.9894C47.4631 14.8449 48.9255 0 51.7705 0C54.6156 0 58.7795 0 58.7795 0C58.7795 0 51.7705 0 65.7885 0C79.8066 0 56.7854 19.3765 65.9331 50.5804C67.6398 56.4024 55.4353 53.9613 50.3976 50.5804Z" fill="#F9E547"/>
</svg>
