<svg width="488" height="474" viewBox="0 0 488 474" fill="none" xmlns="http://www.w3.org/2000/svg">
<path d="M359.004 425.965H422.54V417.37H359.004V425.965Z" fill="#17B975"/>
<path d="M413.884 417.726C413.664 417.726 413.484 419.529 413.484 421.752C413.484 423.977 413.664 425.78 413.884 425.78C414.104 425.78 414.283 423.977 414.283 421.752C414.283 419.529 414.104 417.726 413.884 417.726Z" fill="#FAFAFA"/>
<path d="M415.267 417.55C415.047 417.55 414.868 419.354 414.868 421.578C414.868 423.803 415.047 425.605 415.267 425.605C415.488 425.605 415.667 423.803 415.667 421.578C415.667 419.354 415.488 417.55 415.267 417.55Z" fill="#FAFAFA"/>
<path d="M363.916 417.726C363.696 417.726 363.517 419.529 363.517 421.752C363.517 423.977 363.696 425.78 363.916 425.78C364.137 425.78 364.316 423.977 364.316 421.752C364.316 419.529 364.137 417.726 363.916 417.726Z" fill="#FAFAFA"/>
<path d="M365.299 417.55C365.079 417.55 364.9 419.354 364.9 421.578C364.9 423.803 365.079 425.605 365.299 425.605C365.521 425.605 365.699 423.803 365.699 421.578C365.699 419.354 365.521 417.55 365.299 417.55Z" fill="#FAFAFA"/>
<path d="M373.599 421.927C373.599 422.151 380.877 422.332 389.85 422.332C398.828 422.332 406.104 422.151 406.104 421.927C406.104 421.705 398.828 421.523 389.85 421.523C380.877 421.523 373.599 421.705 373.599 421.927Z" fill="#FAFAFA"/>
<path d="M359.278 473.26H422.814V456.069H359.278V473.26Z" fill="#E0E0E0"/>
<path d="M358.464 468.424C358.458 468.438 358.575 468.504 358.809 468.625C359.042 468.747 359.396 468.913 359.868 469.114C360.812 469.505 362.238 470.059 364.175 470.362C366.08 470.638 368.636 470.715 371.165 469.358C372.406 468.686 373.587 467.666 374.485 466.311C375.363 464.961 375.928 463.196 375.641 461.359C375.489 460.447 375.112 459.545 374.473 458.8C373.852 458.053 372.855 457.504 371.794 457.567C370.729 457.615 369.768 458.234 369.1 459.037C368.428 459.844 367.966 460.877 367.87 461.97C367.62 464.15 368.526 466.409 370.062 468.063C371.573 469.775 373.832 470.818 376.167 471.084C378.518 471.367 380.948 470.988 383.255 470.193C385.562 469.389 387.839 468.078 389.448 465.978C390.237 464.936 390.807 463.64 390.891 462.267C391.009 460.899 390.577 459.427 389.539 458.405C389.022 457.897 388.3 457.555 387.55 457.523C386.801 457.487 386.078 457.735 385.474 458.115C384.248 458.885 383.465 460.204 383.136 461.583C382.539 464.395 383.638 467.322 385.641 469.157C387.651 471.007 390.282 471.828 392.793 472.105C395.324 472.361 397.866 472.17 400.21 471.364C402.544 470.579 404.643 469.023 405.851 466.925C407.08 464.873 407.483 462.275 406.558 460.095C406.123 459.016 405.14 458.057 403.966 457.875C402.821 457.657 401.649 457.977 400.765 458.656C398.972 460.097 398.673 462.567 399.252 464.448C399.84 466.382 401.124 467.864 402.455 469.017C405.171 471.339 408.386 472.344 411.168 472.444C413.979 472.544 416.342 471.76 418.071 470.856C419.813 469.938 420.959 468.896 421.671 468.154C422.021 467.775 422.277 467.476 422.432 467.26C422.591 467.048 422.666 466.935 422.655 466.927C422.575 466.815 421.383 468.803 417.931 470.575C416.218 471.416 413.903 472.132 411.188 471.992C408.498 471.852 405.405 470.838 402.823 468.582C401.553 467.462 400.359 466.033 399.843 464.27C399.324 462.567 399.66 460.362 401.165 459.192C401.899 458.63 402.909 458.368 403.836 458.554C404.779 458.713 405.525 459.438 405.914 460.38C406.715 462.29 406.365 464.655 405.219 466.541C404.097 468.469 402.171 469.892 399.962 470.634C397.754 471.387 395.3 471.569 392.879 471.316C390.474 471.049 388.006 470.256 386.176 468.56C384.369 466.92 383.383 464.225 383.914 461.765C384.203 460.562 384.885 459.435 385.896 458.801C386.888 458.136 388.183 458.156 388.994 458.992C389.814 459.794 390.211 461.039 390.103 462.213C390.032 463.407 389.54 464.548 388.823 465.501C387.366 467.418 385.204 468.693 383.009 469.462C380.789 470.236 378.465 470.599 376.255 470.344C374.049 470.096 371.984 469.152 370.575 467.576C369.143 466.054 368.315 463.989 368.529 462.042C368.684 460.15 370.108 458.307 371.824 458.19C372.671 458.133 373.482 458.554 374.03 459.197C374.589 459.834 374.941 460.643 375.084 461.454C375.36 463.115 374.869 464.749 374.059 466.03C373.232 467.314 372.122 468.305 370.95 468.962C368.579 470.288 366.087 470.276 364.217 470.05C362.312 469.801 360.882 469.303 359.925 468.963C358.97 468.61 358.477 468.394 358.464 468.424Z" fill="#FAFAFA"/>
<path d="M359.278 456.038H417.14V426.213H359.278V456.038Z" fill="#EBEBEB"/>
<path d="M407.527 427.237C407.305 427.237 407.127 433.7 407.127 441.672C407.127 449.645 407.305 456.108 407.527 456.108C407.747 456.108 407.926 449.645 407.926 441.672C407.926 433.7 407.747 427.237 407.527 427.237Z" fill="#E0E0E0"/>
<path d="M403.141 426.867C402.919 426.867 402.741 433.248 402.741 441.117C402.741 448.988 402.919 455.367 403.141 455.367C403.361 455.367 403.54 448.988 403.54 441.117C403.54 433.248 403.361 426.867 403.141 426.867Z" fill="#E0E0E0"/>
<path d="M365.819 425.909C365.599 425.909 365.419 432.629 365.419 440.915C365.419 449.205 365.599 455.923 365.819 455.923C366.04 455.923 366.218 449.205 366.218 440.915C366.218 432.629 366.04 425.909 365.819 425.909Z" fill="#E0E0E0"/>
<path d="M370.975 426.312C370.755 426.312 370.576 432.858 370.576 440.931C370.576 449.006 370.755 455.552 370.975 455.552C371.196 455.552 371.375 449.006 371.375 440.931C371.375 432.858 371.196 426.312 370.975 426.312Z" fill="#E0E0E0"/>
<path d="M59.5127 361.105C53.5158 357.97 46.4524 357.562 39.7919 358.678C36.2145 359.275 32.4859 360.361 30.0517 363.081C27.6164 365.803 27.1548 370.592 29.9513 372.93C31.6147 374.321 33.9349 374.532 36.0927 374.508C41.3053 374.447 47.09 373.516 51.2554 376.693C53.6309 378.506 55.212 381.517 58.0536 382.409C60.8331 383.28 63.9692 381.62 65.4431 379.079C66.9169 376.539 66.9654 373.364 66.2793 370.502C66.2793 370.502 65.5548 364.261 59.5127 361.105" fill="#17B975"/>
<path d="M73.2556 334.241C69.5879 339.545 62.4602 337.788 59.1537 334.55C55.8482 331.312 54.4523 326.62 53.1804 322.144C50.2745 311.92 47.3449 301.193 49.5049 290.781C50.1504 287.667 51.3003 284.563 53.4614 282.254C55.6214 279.944 58.9426 278.569 61.9806 279.383C65.5738 280.344 67.8082 283.91 69.4232 287.3C74.1697 297.267 76.6818 308.319 76.7179 319.386C76.7359 324.553 76.1356 329.974 73.2556 334.241Z" fill="#17B975"/>
<path d="M83.3282 341.852C79.3457 337.066 78.5896 330.085 80.3613 324.09C82.1331 318.093 86.1371 312.992 90.7505 308.829C96.1606 303.946 102.52 300.147 109.354 297.712C112.046 296.754 114.883 295.999 117.722 296.273C120.56 296.546 123.419 298.017 124.744 300.575C126.702 304.356 124.825 308.942 122.795 312.685C119.217 319.277 115.128 325.584 110.575 331.528C106.912 336.308 102.717 341.025 97.1345 343.186C91.5528 345.347 85.7545 345.093 82.7955 341.173" fill="#17B975"/>
<path d="M73.5035 414.262C73.4346 414.265 73.324 413.406 73.1717 411.852C73.0035 410.096 72.7914 407.894 72.5397 405.273C72.2373 402.505 71.8378 399.21 71.0794 395.623C70.3222 392.046 69.1372 388.168 67.6149 384.235C66.0395 380.326 64.1187 376.772 61.8719 373.931C59.643 371.076 57.0497 369.01 54.6121 367.818C52.1824 366.603 50.0044 366.11 48.4978 365.89C46.9788 365.733 46.1279 365.611 46.1279 365.543C46.1268 365.474 46.9788 365.463 48.5396 365.505C50.0856 365.61 52.3551 366.006 54.9146 367.185C57.4842 368.338 60.2344 370.436 62.5738 373.35C64.9313 376.252 66.9231 379.884 68.5267 383.862C70.075 387.864 71.2419 391.781 71.9653 395.437C72.6864 399.087 73.0159 402.418 73.2326 405.209C73.438 408.002 73.517 410.264 73.5542 411.828C73.5881 413.391 73.5712 414.257 73.5035 414.262Z" fill="#E0E0E0"/>
<path d="M73.0562 409.2C73.0223 409.198 73.0009 408.812 72.9918 408.081C72.9941 407.24 72.9975 406.181 73.0009 404.882C73.0088 402.106 73.0065 398.089 72.8598 393.129C72.6172 383.209 71.7742 372.532 70.1457 357.48C68.603 343.327 66.5322 326.855 64.3463 316.145C63.8768 313.709 63.4051 311.516 62.9616 309.599C62.5384 307.674 62.175 306.016 61.8274 304.675C61.5261 303.412 61.2824 302.382 61.0894 301.565C60.9303 300.851 60.8626 300.471 60.8964 300.462C60.928 300.453 61.0589 300.813 61.279 301.511C61.5194 302.316 61.8241 303.33 62.1965 304.575C62.6027 305.904 63.0192 307.553 63.4954 309.469C63.9919 311.379 64.5122 313.567 65.0256 315.998C67.1879 325.703 69.4765 339.265 71.1219 354.353C72.7537 369.437 73.4895 383.172 73.5538 393.117C73.6125 398.088 73.5087 402.114 73.3834 404.891C73.3056 406.191 73.2412 407.249 73.1905 408.089C73.1352 408.819 73.09 409.202 73.0562 409.2Z" fill="#E0E0E0"/>
<path d="M72.9909 382.71C72.922 382.708 72.9344 381.521 73.0146 379.369C73.1353 377.222 73.4265 374.118 74.0246 370.317C74.6577 366.525 75.5424 362.022 76.9316 357.128C77.5331 354.892 78.9483 349.532 82.3767 341.522C86.8953 330.671 93.0322 321.799 98.3712 316.304C99.6238 314.846 101.019 313.793 102.134 312.762C102.711 312.267 103.222 311.775 103.742 311.384C104.264 311.021 104.751 310.68 105.201 310.365C106.959 309.149 107.943 308.507 107.979 308.565C108.137 308.782 104.043 311.221 98.8745 316.789C93.7262 322.347 87.7597 331.158 83.2795 341.918C80.7799 347.754 79.0374 352.96 77.8029 357.381C76.3742 362.226 75.4251 366.684 74.7085 370.438C74.028 374.201 73.633 377.273 73.3949 379.401C73.1996 381.532 73.0586 382.713 72.9909 382.71Z" fill="#E0E0E0"/>
<path d="M100.026 425.414L97.4042 461.777H51.2717L48.6501 425.414H100.026Z" fill="#EBEBEB"/>
<path d="M104.482 425.414H43.1446V411.08H104.482V425.414Z" fill="#EBEBEB"/>
<path d="M104.481 460.385V464.359H101.599H44.1589V460.385H104.481Z" fill="#E0E0E0"/>
<path d="M98.7748 470.912L101.599 463.919H46.3564L49.6528 470.912H98.7748Z" fill="#E0E0E0"/>
<path d="M49.5071 437.298C49.4958 437.307 49.5703 437.419 49.7215 437.632C49.9055 437.877 50.1323 438.182 50.4111 438.558C51.0667 439.407 51.9661 440.573 53.0992 442.039L53.2177 442.195L53.3339 442.034C55.0233 439.667 57.2803 436.507 59.9357 432.786H59.5554C61.5202 435.603 63.7072 438.739 66.0568 442.107L66.261 442.399L66.489 442.125C68.8871 439.234 71.4928 436.095 74.1979 432.837L73.7533 432.831C73.8876 433 74.032 433.185 74.1776 433.369C76.5678 436.405 78.8824 439.342 81.0706 442.122L81.3008 442.413L81.5118 442.109C83.8535 438.756 86.0394 435.623 88.0166 432.791L87.6374 432.809C90.8435 436.507 93.561 439.643 95.6476 442.05L95.7898 442.214L95.8981 442.03C96.9544 440.233 97.7963 438.801 98.4057 437.762C98.6686 437.3 98.8808 436.925 99.0489 436.626C99.1911 436.368 99.2588 436.228 99.2464 436.221C99.234 436.215 99.1426 436.337 98.9778 436.581C98.7905 436.869 98.5558 437.228 98.2657 437.675C97.6247 438.694 96.74 440.1 95.6329 441.863L95.8834 441.844C93.8307 439.407 91.1561 436.232 88.0019 432.49L87.8044 432.254L87.6227 432.509C85.6298 435.327 83.4235 438.446 81.0615 441.784L81.5039 441.772C79.3202 438.989 77.0124 436.048 74.6267 433.008C74.4812 432.823 74.3367 432.639 74.2024 432.467L73.9824 432.19L73.7578 432.463C71.0606 435.728 68.4628 438.873 66.0703 441.768L66.5014 441.787C64.1293 438.435 61.9197 435.315 59.9357 432.513L59.7439 432.24L59.5554 432.513C56.9564 436.274 54.7468 439.468 53.0935 441.86L53.3283 441.852C52.1501 440.422 51.2146 439.285 50.5318 438.459C50.2294 438.104 49.9822 437.814 49.7836 437.581C49.6109 437.386 49.5173 437.289 49.5071 437.298Z" fill="#F5F5F5"/>
<path d="M48.0082 425.173C48.0082 425.335 59.5675 425.464 73.8229 425.464C88.084 425.464 99.6411 425.335 99.6411 425.173C99.6411 425.013 88.084 424.882 73.8229 424.882C59.5675 424.882 48.0082 425.013 48.0082 425.173Z" fill="#F5F5F5"/>
<path d="M311.02 46.37C311.025 46.3803 311.114 46.3517 311.283 46.2889C311.486 46.2077 311.731 46.1095 312.03 45.9906C312.731 45.6958 313.681 45.2958 314.878 44.7907C317.394 43.6994 320.944 42.16 325.308 40.2687C334.137 36.373 346.247 31.0317 359.624 25.1304C360.031 24.9487 360.438 24.7693 360.814 24.6025H360.565C373.717 30.298 385.566 35.428 394.189 39.1614C398.449 40.975 401.911 42.4469 404.362 43.4902C405.529 43.9725 406.453 44.3542 407.136 44.6364C407.772 44.8924 408.111 45.017 408.12 44.9975C408.128 44.9781 407.806 44.8147 407.185 44.5222C406.513 44.2136 405.604 43.7953 404.457 43.2685C402.023 42.1818 398.588 40.647 394.361 38.758C385.757 34.98 373.935 29.7884 360.811 24.0254L360.687 23.9705L360.563 24.0254C360.187 24.1922 359.781 24.3728 359.375 24.5545C346.025 30.5209 333.941 35.9228 325.132 39.8608C320.801 41.8298 317.278 43.4308 314.781 44.5656C313.603 45.1164 312.669 45.5529 311.98 45.8741C311.692 46.0169 311.453 46.1323 311.257 46.2295C311.096 46.3129 311.016 46.3597 311.02 46.37Z" fill="#E0E0E0"/>
<path d="M257.49 208.485H477.884V41.3805H257.49V208.485Z" fill="#17B975"/>
<path d="M264.369 201.618H470.18V49.1503H264.369V201.618Z" fill="#FAFAFA"/>
<path d="M424.719 115.764C424.719 115.764 424.505 141.359 423.22 149.168L391.518 147.649C391.518 147.649 394.302 122.489 393.233 115.764H424.719Z" fill="#E0E0E0"/>
<path d="M409.105 119.384C409.105 119.38 409.066 119.376 408.989 119.371C408.9 119.368 408.787 119.363 408.647 119.358C408.347 119.336 407.901 119.358 407.328 119.425C406.76 119.515 406.061 119.67 405.312 120.03C404.566 120.389 403.792 120.974 403.118 121.788C402.469 122.617 401.875 123.643 401.598 124.879C401.337 126.117 401.47 127.506 401.931 128.846C402.156 129.519 402.461 130.181 402.821 130.828C403.179 131.474 403.538 132.124 403.837 132.831C404.435 134.232 404.909 135.773 405.118 137.386L405.132 137.492L405.234 137.494C406.235 137.51 407.293 137.527 408.365 137.546C409.49 137.563 410.598 137.581 411.648 137.597L411.764 137.599L411.768 137.479C411.823 135.864 412.539 134.394 413.291 133.092C413.672 132.434 414.089 131.817 414.478 131.193C414.859 130.582 415.288 129.995 415.592 129.354C416.217 128.077 416.324 126.663 416.088 125.445C415.861 124.223 415.461 123.117 414.865 122.245C414.271 121.374 413.515 120.768 412.802 120.364C412.084 119.96 411.409 119.74 410.855 119.602C410.299 119.467 409.858 119.413 409.561 119.389C409.411 119.38 409.297 119.374 409.221 119.376C409.145 119.376 409.105 119.38 409.105 119.384C409.105 119.387 409.145 119.39 409.22 119.398C409.308 119.408 409.419 119.419 409.556 119.434C409.851 119.473 410.287 119.539 410.834 119.688C411.379 119.836 412.041 120.066 412.74 120.474C413.435 120.881 414.165 121.483 414.735 122.337C415.304 123.186 415.69 124.279 415.903 125.477C416.124 126.67 416.013 128.028 415.402 129.261C415.105 129.881 414.686 130.45 414.292 131.075C413.905 131.69 413.481 132.312 413.095 132.975C412.333 134.29 411.592 135.78 411.531 137.476L411.652 137.357C410.601 137.34 409.493 137.322 408.369 137.303C407.296 137.286 406.239 137.269 405.239 137.254L405.354 137.362C405.137 135.705 404.656 134.16 404.046 132.738C403.743 132.026 403.371 131.359 403.014 130.719C402.657 130.082 402.354 129.433 402.131 128.776C401.674 127.466 401.538 126.118 401.782 124.919C402.038 123.725 402.616 122.701 403.242 121.89C403.892 121.089 404.641 120.507 405.367 120.145C406.095 119.781 406.781 119.614 407.341 119.51C407.905 119.432 408.348 119.396 408.648 119.403C408.787 119.4 408.9 119.396 408.989 119.394C409.066 119.39 409.105 119.387 409.105 119.384Z" fill="white"/>
<path d="M407.479 137.214C407.479 137.214 407.487 137.18 407.499 137.114C407.51 137.043 407.527 136.943 407.547 136.816C407.587 136.549 407.645 136.165 407.72 135.67C407.862 134.674 408.073 133.232 408.215 131.435C408.249 130.986 408.28 130.515 408.298 130.024C408.313 129.533 408.334 129.022 408.305 128.49C408.276 127.96 408.191 127.404 407.949 126.884C407.706 126.373 407.302 125.893 406.739 125.659C406.182 125.414 405.473 125.542 405.014 125.991C404.788 126.215 404.637 126.536 404.643 126.87C404.646 127.201 404.772 127.525 404.968 127.789C405.163 128.058 405.435 128.265 405.731 128.413C406.027 128.564 406.349 128.657 406.672 128.729C407.323 128.869 407.994 128.945 408.673 128.966C409.354 128.981 410.028 128.968 410.687 128.866C411.015 128.812 411.339 128.726 411.641 128.588C411.943 128.45 412.218 128.255 412.44 128.013C412.662 127.77 412.83 127.476 412.9 127.153C412.974 126.832 412.924 126.492 412.787 126.203C412.65 125.915 412.418 125.668 412.124 125.549C411.829 125.429 411.495 125.463 411.222 125.592C410.945 125.72 410.717 125.929 410.549 126.172C410.38 126.417 410.278 126.694 410.212 126.972C410.082 127.529 410.085 128.082 410.051 128.609C409.997 129.665 409.946 130.649 409.9 131.548C409.811 133.344 409.738 134.796 409.688 135.806C409.665 136.306 409.647 136.694 409.635 136.964C409.63 137.093 409.627 137.193 409.624 137.265C409.621 137.333 409.624 137.367 409.624 137.367C409.624 137.367 409.629 137.333 409.634 137.266C409.639 137.194 409.646 137.094 409.655 136.965C409.671 136.697 409.696 136.307 409.726 135.809C409.784 134.8 409.867 133.346 409.97 131.553C410.02 130.654 410.074 129.67 410.134 128.614C410.169 128.086 410.168 127.534 410.296 126.992C410.362 126.723 410.461 126.454 410.621 126.223C410.781 125.993 411 125.796 411.259 125.676C411.516 125.556 411.822 125.526 412.089 125.637C412.358 125.743 412.575 125.974 412.702 126.244C412.831 126.516 412.876 126.833 412.807 127.133C412.741 127.434 412.581 127.714 412.369 127.946C411.943 128.42 411.313 128.668 410.671 128.768C410.024 128.869 409.35 128.881 408.677 128.865C408.002 128.845 407.336 128.769 406.694 128.632C406.375 128.561 406.061 128.47 405.774 128.325C405.488 128.182 405.23 127.985 405.045 127.73C404.859 127.479 404.74 127.175 404.739 126.869C404.733 126.561 404.87 126.27 405.08 126.059C405.509 125.638 406.179 125.513 406.705 125.743C407.24 125.964 407.634 126.427 407.871 126.923C408.107 127.425 408.194 127.972 408.224 128.495C408.254 129.021 408.234 129.531 408.221 130.022C408.206 130.512 408.177 130.982 408.145 131.43C408.013 133.224 407.812 134.667 407.681 135.665C407.615 136.161 407.563 136.547 407.527 136.813C407.511 136.941 407.499 137.041 407.488 137.113C407.481 137.18 407.479 137.214 407.479 137.214Z" fill="white"/>
<path d="M411.653 137.383C411.637 137.398 411.61 137.782 411.571 138.451C411.531 139.225 411.484 140.151 411.429 141.232L411.455 141.164C410.818 141.908 410.098 142.748 409.321 143.654L409.431 143.607C408.653 143.562 407.824 143.516 406.964 143.466L407.068 143.519C406.672 143.029 406.26 142.52 405.839 142C405.631 141.743 405.425 141.491 405.223 141.24L405.255 141.337C405.289 139.874 405.321 138.487 405.349 137.222L405.215 137.353C407.012 137.372 408.571 137.389 409.824 137.404C410.324 137.403 410.763 137.403 411.156 137.402C411.469 137.399 411.642 137.394 411.653 137.383C411.663 137.373 411.51 137.359 411.213 137.341C410.83 137.321 410.401 137.298 409.913 137.273C408.638 137.221 407.051 137.158 405.221 137.086L405.091 137.081L405.086 137.216C405.049 138.479 405.007 139.866 404.964 141.331L404.962 141.384L404.997 141.428C405.199 141.678 405.404 141.932 405.612 142.188C406.034 142.708 406.447 143.216 406.844 143.704L406.885 143.754L406.948 143.758C407.809 143.8 408.64 143.841 409.416 143.88L409.484 143.882L409.527 143.832C410.29 142.912 410.995 142.061 411.62 141.307L411.646 141.276V141.239C411.656 140.131 411.665 139.181 411.673 138.386C411.673 137.723 411.669 137.369 411.653 137.383" fill="white"/>
<path d="M405.285 140.999C405.288 141.006 405.37 140.967 405.519 140.9C405.667 140.831 405.884 140.737 406.159 140.643C406.706 140.451 407.501 140.271 408.388 140.299C409.274 140.326 410.057 140.553 410.591 140.78C410.859 140.892 411.07 140.998 411.215 141.075C411.358 141.152 411.438 141.196 411.443 141.19C411.445 141.184 411.373 141.129 411.233 141.041C411.094 140.952 410.886 140.836 410.619 140.715C410.085 140.47 409.292 140.227 408.39 140.199C407.49 140.171 406.683 140.365 406.135 140.576C405.861 140.681 405.646 140.785 405.501 140.864C405.358 140.943 405.282 140.995 405.285 140.999Z" fill="white"/>
<path d="M405.286 140C405.289 140.007 405.371 139.968 405.519 139.899C405.668 139.832 405.885 139.738 406.159 139.643C406.708 139.45 407.502 139.272 408.388 139.299C409.275 139.326 410.057 139.554 410.592 139.779C410.86 139.891 411.071 139.999 411.215 140.075C411.359 140.152 411.439 140.196 411.443 140.19C411.446 140.185 411.374 140.129 411.234 140.042C411.095 139.953 410.888 139.836 410.619 139.714C410.085 139.47 409.292 139.226 408.391 139.2C407.49 139.171 406.684 139.364 406.136 139.576C405.861 139.681 405.647 139.785 405.502 139.865C405.358 139.944 405.283 139.994 405.286 140Z" fill="white"/>
<path d="M405.344 139.049C405.347 139.056 405.429 139.017 405.578 138.95C405.726 138.881 405.943 138.787 406.218 138.692C406.766 138.5 407.56 138.321 408.447 138.348C409.333 138.376 410.116 138.603 410.65 138.83C410.918 138.942 411.129 139.048 411.274 139.124C411.417 139.202 411.497 139.246 411.502 139.24C411.504 139.234 411.432 139.179 411.292 139.091C411.153 139.002 410.946 138.886 410.678 138.764C410.144 138.52 409.351 138.276 408.449 138.249C407.549 138.221 406.742 138.415 406.194 138.626C405.92 138.731 405.705 138.835 405.56 138.914C405.417 138.993 405.341 139.044 405.344 139.049Z" fill="white"/>
<path d="M460.026 73.9226C460.026 73.9226 459.812 99.5173 458.527 107.326L426.826 105.807C426.826 105.807 429.61 80.6467 428.539 73.9226H460.026Z" fill="#EBEBEB"/>
<path d="M433.317 84.6735C433.307 84.8472 438.061 85.2768 443.934 85.6357C449.81 85.9934 454.58 86.1431 454.59 85.9694C454.6 85.7957 449.847 85.3648 443.971 85.0071C438.098 84.6495 433.327 84.4998 433.317 84.6735Z" fill="white"/>
<path d="M433.309 90.0944C433.298 90.2681 438.053 90.6989 443.926 91.0566C449.802 91.4143 454.571 91.564 454.582 91.3903C454.591 91.2166 449.839 90.7858 443.963 90.4281C438.089 90.0704 433.319 89.9207 433.309 90.0944Z" fill="white"/>
<path d="M438.697 95.4172C438.687 95.5909 441.392 95.8972 444.738 96.1006C448.085 96.304 450.806 96.3292 450.817 96.1555C450.827 95.9818 448.123 95.6767 444.775 95.4721C441.429 95.2687 438.707 95.2447 438.697 95.4172Z" fill="white"/>
<path d="M461.527 149.224C461.527 149.224 461.312 174.819 460.027 182.627L428.326 181.109C428.326 181.109 431.11 155.948 430.04 149.224H461.527Z" fill="#EBEBEB"/>
<path d="M434.817 159.974C434.807 160.148 439.562 160.579 445.435 160.937C451.311 161.294 456.081 161.444 456.091 161.27C456.101 161.097 451.348 160.666 445.472 160.308C439.599 159.95 434.827 159.801 434.817 159.974Z" fill="white"/>
<path d="M434.809 165.396C434.799 165.57 439.553 166 445.426 166.358C451.302 166.716 456.071 166.866 456.083 166.692C456.093 166.518 451.339 166.087 445.463 165.73C439.591 165.372 434.819 165.222 434.809 165.396Z" fill="white"/>
<path d="M440.197 170.719C440.187 170.892 442.892 171.197 446.238 171.402C449.586 171.605 452.308 171.631 452.318 171.457C452.328 171.283 449.624 170.978 446.276 170.773C442.93 170.57 440.208 170.545 440.197 170.719Z" fill="white"/>
<path d="M374.892 80.7062L371.753 154.529L280.745 155.64L284.83 81.6822L374.892 80.7062Z" fill="#EBEBEB"/>
<path d="M285.545 149.302H375.946V80.1765H285.545V149.302Z" fill="#F5F5F5"/>
<path d="M285.545 149.303C285.545 149.303 285.563 148.857 285.572 148.021C285.58 147.165 285.589 145.934 285.602 144.332C285.618 141.091 285.639 136.369 285.667 130.344C285.7 118.291 285.745 101.043 285.8 80.1775L285.545 80.4357C311.102 80.4517 342.297 80.4712 375.939 80.4917H375.946L375.636 80.1775C375.647 105.039 375.657 128.577 375.666 149.303L375.946 149.018C349.198 149.076 326.636 149.126 310.738 149.16C302.788 149.192 296.509 149.218 292.192 149.235C290.052 149.25 288.402 149.262 287.263 149.27C286.715 149.276 286.294 149.282 285.988 149.286C285.7 149.291 285.545 149.303 285.545 149.303C285.545 149.303 285.679 149.313 285.955 149.319C286.253 149.323 286.665 149.328 287.2 149.335C288.325 149.343 289.957 149.354 292.074 149.369C296.376 149.387 302.633 149.412 310.556 149.446C326.498 149.48 349.124 149.528 375.946 149.586L376.227 149.587V149.303C376.236 128.577 376.248 105.039 376.258 80.1775V79.8621H375.946H375.939C342.297 79.8838 311.102 79.9032 285.545 79.9192H285.289V80.1775C285.346 101.111 285.391 118.415 285.422 130.506C285.452 136.506 285.473 141.208 285.488 144.436C285.5 146.016 285.51 147.232 285.517 148.075C285.526 148.895 285.545 149.303 285.545 149.303Z" fill="#E0E0E0"/>
<path d="M328.395 141.525H365.042V94.8212H328.395V141.525Z" fill="#F5F5F5"/>
<path d="M328.395 141.525C328.399 141.52 328.405 141.44 328.41 141.289C328.415 141.112 328.419 140.896 328.426 140.624C328.435 140.01 328.445 139.159 328.46 138.071C328.477 135.814 328.502 132.577 328.535 128.489C328.567 120.268 328.616 108.636 328.673 94.822L328.395 95.1031C339.315 95.1134 351.814 95.1237 365.038 95.1363C365.111 95.2026 364.453 94.5455 364.731 94.83V94.8426V94.8677V94.9191V95.0197V95.222V95.6277V96.4356V98.0458C364.731 99.1177 364.732 100.183 364.732 101.243C364.733 103.364 364.734 105.464 364.734 107.537C364.738 111.685 364.742 115.731 364.744 119.656C364.759 127.501 364.771 134.852 364.784 141.525L365.041 141.263C354.047 141.32 344.923 141.366 338.508 141.399C335.326 141.428 332.817 141.451 331.064 141.467C330.227 141.479 329.571 141.489 329.09 141.496C328.641 141.505 328.395 141.525 328.395 141.525C328.386 141.535 328.603 141.544 329.035 141.553C329.504 141.561 330.143 141.572 330.959 141.583C332.699 141.599 335.188 141.622 338.346 141.651C344.801 141.684 353.979 141.731 365.041 141.787L365.299 141.788V141.525C365.311 134.852 365.324 127.501 365.338 119.656C365.342 115.731 365.346 111.685 365.349 107.537C365.35 105.464 365.35 103.364 365.351 101.243C365.351 100.183 365.352 99.1177 365.352 98.0458V96.4356V95.6277V95.222V95.0197V94.9191V94.8677V94.8426V94.83C365.629 95.1077 364.977 94.4357 365.038 94.5066C351.814 94.5192 339.315 94.5295 328.395 94.5397H328.115L328.116 94.822C328.173 108.71 328.222 120.406 328.256 128.672C328.287 132.732 328.312 135.948 328.329 138.19C328.344 139.254 328.354 140.086 328.362 140.688C328.37 140.947 328.374 141.153 328.379 141.321C328.383 141.462 328.389 141.531 328.395 141.525Z" fill="#E0E0E0"/>
<path d="M293.406 90.8638H363.637V84.134H293.406V90.8638Z" fill="#F5F5F5"/>
<path d="M293.406 90.8639C293.414 90.8559 293.422 90.6993 293.431 90.4034C293.437 90.0754 293.447 89.6446 293.46 89.0983C293.477 87.9293 293.501 86.2677 293.532 84.1352L293.406 84.2621C305.251 84.3718 332.247 84.4495 363.633 84.4495H363.637C363.017 83.8198 363.465 84.2758 363.326 84.1364V84.1375V84.1444V84.1581V84.1855V84.2392V84.3467V84.5626V84.9946V85.8551C363.326 86.4265 363.326 86.9945 363.327 87.5579C363.327 88.6858 363.327 89.792 363.327 90.8639L363.638 90.5508C343.997 90.6033 326.494 90.6502 313.856 90.6845C307.555 90.7233 302.469 90.7553 298.914 90.777C297.177 90.7953 295.816 90.8102 294.849 90.8205C294.407 90.8296 294.056 90.8376 293.783 90.8422C293.541 90.849 293.414 90.857 293.406 90.8639C293.399 90.8708 293.512 90.8788 293.741 90.8856C294.003 90.8913 294.341 90.8982 294.766 90.9073C295.717 90.9176 297.054 90.9325 298.762 90.9507C302.298 90.9725 307.36 91.0045 313.63 91.0445C326.326 91.0776 343.908 91.1256 363.638 91.177L363.947 91.1782V90.8639C363.947 89.792 363.948 88.6858 363.948 87.5579C363.948 86.9945 363.948 86.4265 363.948 85.8551V84.9946V84.5626V84.3467V84.2392V84.1855V84.1581V84.1444V84.1375V84.1364C363.809 83.9958 364.26 84.4484 363.637 83.8198H363.633C332.247 83.8198 305.251 83.8964 293.406 84.0073L293.278 84.0084L293.28 84.1352C293.311 86.2997 293.336 87.9853 293.352 89.1715C293.364 89.7063 293.374 90.128 293.382 90.4479C293.39 90.7325 293.398 90.8719 293.406 90.8639Z" fill="#E0E0E0"/>
<path d="M293.406 122.969H323.908V94.8212H293.406V122.969Z" fill="#F5F5F5"/>
<path d="M293.406 122.969C293.416 122.96 293.426 122.775 293.435 122.425C293.443 122.036 293.453 121.531 293.465 120.897C293.482 119.522 293.505 117.593 293.534 115.16C293.568 110.208 293.614 103.215 293.67 94.8216L293.406 95.0902C302.216 95.1027 312.691 95.1187 323.905 95.1359C323.976 95.2033 323.319 94.5428 323.597 94.8262V94.833V94.849V94.8788V94.9382V95.0593V95.2993V95.7781V96.7335C323.597 97.37 323.598 98.0031 323.598 98.6339C323.598 99.8944 323.599 101.145 323.599 102.382C323.602 104.856 323.605 107.28 323.607 109.643C323.617 114.365 323.626 118.838 323.635 122.969L323.908 122.693C314.862 122.751 307.282 122.799 301.906 122.833C299.259 122.864 297.159 122.888 295.664 122.905C294.972 122.919 294.42 122.929 293.998 122.938C293.618 122.949 293.416 122.959 293.406 122.969C293.395 122.98 293.577 122.991 293.938 123.001C294.347 123.009 294.881 123.02 295.551 123.033C297.03 123.05 299.111 123.076 301.731 123.106C307.15 123.14 314.79 123.189 323.908 123.246L324.18 123.248L324.181 122.969C324.189 118.838 324.199 114.365 324.208 109.643C324.211 107.28 324.214 104.856 324.216 102.382C324.216 101.145 324.217 99.8944 324.219 98.6339C324.219 98.0031 324.219 97.37 324.219 96.7335V95.7781V95.2993V95.0593V94.9382V94.8788V94.849V94.833V94.8262C324.496 95.105 323.842 94.4376 323.905 94.5062C312.691 94.5234 302.216 94.5405 293.406 94.5531L293.139 94.5542L293.141 94.8216C293.197 103.285 293.244 110.336 293.277 115.33C293.306 117.737 293.33 119.645 293.346 121.007C293.358 121.619 293.368 122.106 293.376 122.484C293.386 122.814 293.397 122.98 293.406 122.969Z" fill="#E0E0E0"/>
<path d="M293.406 141.525H323.908V127.382H293.406V141.525Z" fill="#F5F5F5"/>
<path d="M293.406 141.525C293.422 141.509 293.437 141.156 293.454 140.5C293.468 139.788 293.487 138.844 293.511 137.66C293.54 135.164 293.581 131.67 293.631 127.382L293.406 127.611C301.361 127.633 312.094 127.663 323.906 127.696C324.185 127.979 323.53 127.313 323.597 127.383V127.387V127.395V127.409V127.438V127.496V127.613V127.846V128.31V129.236C323.598 129.852 323.598 130.463 323.598 131.072C323.599 132.288 323.6 133.489 323.601 134.673C323.606 137.038 323.609 139.331 323.614 141.525L323.908 141.227C315.11 141.284 307.542 141.334 302.096 141.368C299.43 141.404 297.287 141.431 295.739 141.452C295.035 141.467 294.468 141.478 294.023 141.488C293.629 141.501 293.418 141.512 293.406 141.525C293.394 141.538 293.581 141.549 293.953 141.562C294.382 141.572 294.929 141.583 295.609 141.599C297.14 141.62 299.259 141.647 301.898 141.682C307.393 141.717 315.03 141.766 323.908 141.824L324.203 141.826V141.525C324.206 139.331 324.211 137.038 324.214 134.673C324.215 133.489 324.216 132.288 324.218 131.072C324.218 130.463 324.219 129.852 324.219 129.236V128.31V127.846V127.613V127.496V127.438V127.409V127.395V127.387V127.383C324.286 127.451 323.63 126.787 323.906 127.068C312.094 127.101 301.361 127.131 293.406 127.153L293.178 127.155L293.18 127.382C293.231 131.728 293.273 135.269 293.302 137.8C293.326 138.962 293.344 139.89 293.358 140.588C293.375 141.219 293.39 141.541 293.406 141.525Z" fill="#E0E0E0"/>
<path d="M329.302 94.9021C340.646 110.771 353.698 125.658 365.042 141.525Z" fill="white"/>
<path d="M365.041 141.525C365.058 141.512 364.954 141.334 364.741 141.004C364.481 140.618 364.167 140.149 363.784 139.582C362.946 138.351 361.692 136.6 360.115 134.458C356.967 130.169 352.461 124.365 347.414 118.018C342.366 111.669 337.81 105.914 334.576 101.698C333.006 99.6466 331.714 97.9565 330.752 96.6994C330.334 96.1612 329.987 95.7143 329.702 95.3487C329.456 95.0435 329.318 94.8893 329.301 94.903C329.283 94.9144 329.387 95.0938 329.6 95.4229C329.86 95.808 330.176 96.2777 330.557 96.8445C331.396 98.0753 332.649 99.826 334.226 101.969C337.375 106.258 341.882 112.062 346.93 118.412C351.975 124.759 356.531 130.513 359.765 134.729C361.335 136.781 362.627 138.47 363.589 139.727C364.009 140.267 364.355 140.712 364.641 141.078C364.885 141.383 365.023 141.537 365.041 141.525Z" fill="#E0E0E0"/>
<path d="M365.042 94.8212L328.394 141.525Z" fill="white"/>
<path d="M328.395 141.525C328.529 141.633 336.843 131.265 346.961 118.37C357.082 105.47 365.175 94.9294 365.042 94.8209C364.907 94.7134 356.595 105.08 346.475 117.979C336.355 130.873 328.26 141.416 328.395 141.525Z" fill="#E0E0E0"/>
<path d="M371.753 94.921C371.753 98.1276 374.319 100.726 377.486 100.726C380.652 100.726 383.218 98.1276 383.218 94.921C383.218 91.7143 380.652 89.1145 377.486 89.1145C374.319 89.1145 371.753 91.7143 371.753 94.921Z" fill="#E0E0E0"/>
<path d="M277.987 80.8289C277.987 84.0355 280.554 86.6342 283.72 86.6342C286.887 86.6342 289.453 84.0355 289.453 80.8289C289.453 77.6223 286.887 75.0236 283.72 75.0236C280.554 75.0236 277.987 77.6223 277.987 80.8289Z" fill="#E0E0E0"/>
<path d="M53.7222 218.237H119.789V121.266H53.7222V218.237Z" fill="#E0E0E0"/>
<path d="M57.0321 218.237H123.099V121.266H57.0321V218.237Z" fill="#F5F5F5"/>
<path d="M65.2397 207.734H114.89V131.768H65.2397V207.734Z" fill="white"/>
<path d="M65.2401 207.734C65.2401 207.734 65.2469 207.605 65.2502 207.363C65.2525 207.113 65.2559 206.754 65.2604 206.285C65.2638 205.331 65.2706 203.933 65.2796 202.119C65.2897 198.478 65.3055 193.172 65.3236 186.471C65.3439 173.075 65.3721 154.106 65.4049 131.768L65.2401 131.935C80.4096 131.94 97.2188 131.944 114.885 131.95H114.89L114.711 131.768C114.725 160.426 114.737 186.849 114.748 207.734L114.89 207.589C99.7704 207.621 87.3759 207.647 78.7518 207.666C74.4375 207.682 71.0689 207.694 68.7678 207.702C67.6235 207.71 66.7478 207.715 66.1474 207.718C65.5527 207.724 65.2401 207.734 65.2401 207.734C65.2401 207.734 65.5324 207.745 66.1158 207.75C66.7117 207.754 67.5784 207.758 68.7103 207.766C71.0034 207.774 74.363 207.787 78.6638 207.803C87.3093 207.821 99.7332 207.847 114.89 207.879H115.034V207.734C115.044 186.849 115.057 160.426 115.07 131.768L115.071 131.587H114.89H114.885C97.2188 131.591 80.4096 131.597 65.2401 131.602H65.0753V131.768C65.1092 154.151 65.1363 173.157 65.1566 186.579C65.1746 193.266 65.1904 198.559 65.2017 202.191C65.2096 203.991 65.2164 205.377 65.2209 206.324C65.2243 206.783 65.2277 207.135 65.2299 207.382C65.2333 207.619 65.2401 207.734 65.2401 207.734Z" fill="#E0E0E0"/>
<path d="M56.8468 121.266C56.8085 121.296 57.2565 121.958 58.0239 122.998C58.7924 124.037 59.8803 125.452 61.1239 126.98C62.3687 128.509 63.5299 129.862 64.3898 130.824C65.2498 131.786 65.8061 132.359 65.8434 132.327C65.8817 132.292 65.392 131.66 64.5817 130.656C63.6958 129.568 62.6068 128.23 61.4015 126.749C60.1974 125.267 59.1084 123.927 58.2236 122.838C57.4054 121.842 56.8863 121.235 56.8468 121.266Z" fill="#E0E0E0"/>
<path d="M64.9877 207.489C62.5207 211.46 59.6103 215.147 56.3274 218.457Z" fill="white"/>
<path d="M56.3276 218.457C56.3604 218.49 56.9495 217.972 57.8376 217.066C58.7246 216.16 59.9017 214.857 61.1035 213.335C62.3054 211.813 63.303 210.362 63.979 209.287C64.6583 208.211 65.0262 207.515 64.9879 207.49C64.9427 207.461 64.4981 208.108 63.7691 209.143C63.0412 210.177 62.0176 211.594 60.8225 213.107C59.6286 214.62 58.4888 215.943 57.6525 216.89C56.8163 217.837 56.2904 218.419 56.3276 218.457Z" fill="#E0E0E0"/>
<path d="M123.109 218.16C120.224 214.556 117.34 210.952 114.455 207.349Z" fill="white"/>
<path d="M114.455 207.348C114.378 207.412 116.253 209.883 118.642 212.869C121.032 215.855 123.032 218.224 123.108 218.16C123.185 218.097 121.311 215.625 118.92 212.639C116.531 209.654 114.532 207.285 114.455 207.348Z" fill="#E0E0E0"/>
<path d="M123.1 121.266C123.022 121.203 121.141 123.479 118.898 126.35C116.657 129.221 114.902 131.599 114.98 131.662C115.058 131.723 116.938 129.447 119.18 126.575C121.423 123.706 123.176 121.327 123.1 121.266Z" fill="#E0E0E0"/>
<path d="M80.7095 194.991H97.3337V147.192H80.7095V194.991Z" fill="#E0E0E0"/>
<path d="M68.7018 65.9009L78.1587 65.9523L78.4115 18.2998L68.9545 18.2484L68.7018 65.9009Z" fill="#17B975"/>
<path d="M135.712 44.6799L160.202 44.8124L160.342 18.5046L135.851 18.3721L135.712 44.6799Z" fill="#EBEBEB"/>
<path d="M111.338 44.5477L135.827 44.6802L135.967 18.3736L111.476 18.2399L111.338 44.5477Z" fill="#F5F5F5"/>
<path d="M160.303 25.7704C144.028 25.9064 127.712 25.8104 111.437 25.543C111.102 25.5373 111.104 25.0173 111.441 25.0162C127.716 24.9248 144.032 25.0059 160.305 25.3179C160.592 25.3236 160.591 25.7681 160.303 25.7704Z" fill="#E0E0E0"/>
<path d="M131.003 65.6795L175.498 65.9206L175.611 44.4822L131.117 44.241L131.003 65.6795Z" fill="#EBEBEB"/>
<path d="M86.7171 65.4395L131.213 65.6807L131.326 44.2422L86.8311 44.0011L86.7171 65.4395Z" fill="#F5F5F5"/>
<path d="M175.579 50.445C146.02 50.7833 116.357 50.4805 86.7987 50.0005C86.4646 49.9948 86.4657 49.4748 86.802 49.4737C116.362 49.316 146.028 49.3331 175.581 49.9925C175.869 49.9993 175.867 50.4416 175.579 50.445Z" fill="#E0E0E0"/>
<path d="M19.8305 73.6022H192.219V65.9216H19.8305V73.6022Z" fill="#E0E0E0"/>
<path d="M156.997 95.8223H163.995V69.6139H156.997V95.8223Z" fill="#E0E0E0"/>
<path d="M52.5307 95.8223H59.5286V69.6139H52.5307V95.8223Z" fill="#E0E0E0"/>
<path d="M59.3783 66.0175L68.8353 66.0689L69.1829 0.529731L59.7259 0.478304L59.3783 66.0175Z" fill="#EBEBEB"/>
<path d="M44.6668 65.7905L59.3612 65.8705L59.6433 12.7578L44.9478 12.6778L44.6668 65.7905Z" fill="#F5F5F5"/>
<path d="M45.0469 22.9107C45.0469 23.0536 48.3366 23.169 52.3947 23.169C56.4528 23.169 59.7413 23.0536 59.7413 22.9107C59.7413 22.7679 56.4528 22.6525 52.3947 22.6525C48.3366 22.6525 45.0469 22.7679 45.0469 22.9107Z" fill="#E0E0E0"/>
<path d="M45.0469 20.6792C45.0469 20.8221 48.3366 20.9375 52.3947 20.9375C56.4528 20.9375 59.7413 20.8221 59.7413 20.6792C59.7413 20.5364 56.4528 20.421 52.3947 20.421C48.3366 20.421 45.0469 20.5364 45.0469 20.6792Z" fill="#E0E0E0"/>
<path d="M45.0469 57.7994C45.0469 57.9422 48.3366 58.0576 52.3947 58.0576C56.4528 58.0576 59.7413 57.9422 59.7413 57.7994C59.7413 57.6565 56.4528 57.5411 52.3947 57.5411C48.3366 57.5411 45.0469 57.6565 45.0469 57.7994Z" fill="#E0E0E0"/>
<path d="M45.0469 55.5685C45.0469 55.7114 48.3366 55.8268 52.3947 55.8268C56.4528 55.8268 59.7413 55.7114 59.7413 55.5685C59.7413 55.4257 56.4528 55.3103 52.3947 55.3103C48.3366 55.3103 45.0469 55.4257 45.0469 55.5685Z" fill="#E0E0E0"/>
<path d="M52.1574 50.7001C52.2985 50.7001 52.4125 45.3416 52.4125 38.7329C52.4125 32.122 52.2985 26.7647 52.1574 26.7647C52.0175 26.7647 51.9024 32.122 51.9024 38.7329C51.9024 45.3416 52.0175 50.7001 52.1574 50.7001Z" fill="#E0E0E0"/>
<path d="M28.8915 65.8097H44.8882V25.7211H28.8915V65.8097Z" fill="#EBEBEB"/>
<path d="M36.4388 55.4139C38.5424 55.4139 40.0128 53.8974 40.0128 51.8073C40.0128 50.6748 39.5806 49.6909 38.7184 49.1035L38.3539 49.6086C39.0683 50.1286 39.4057 50.9194 39.4057 51.8073C39.4057 53.4883 38.2185 54.718 36.4388 54.718C34.658 54.718 33.4708 53.4883 33.4708 51.8073C33.4708 50.9194 33.8082 50.1286 34.5237 49.6086L34.1581 49.1035C33.3094 49.6909 32.8637 50.6748 32.8637 51.8073C32.8637 53.8974 34.3477 55.4139 36.4388 55.4139Z" fill="#FAFAFA"/>
<path d="M33.7685 48.1082L34.3079 47.794C33.8486 47.2477 33.4582 46.2775 33.4582 45.2273C33.4582 43.7234 33.9829 43.1235 34.7796 43.1235C36.8302 43.1235 35.3191 47.8488 38.0839 47.8488C39.1504 47.8488 40.0126 46.9472 40.0126 45.1439C40.0126 44.2434 39.744 43.2595 39.3253 42.6995L38.7859 43.0138C39.217 43.6149 39.4201 44.3931 39.4201 45.1576C39.4201 46.5518 38.8536 47.1666 38.0975 47.1666C35.9804 47.1666 37.4768 42.4401 34.7932 42.4401C33.6466 42.4401 32.8634 43.4366 32.8634 45.2536C32.8634 46.4284 33.255 47.5483 33.7685 48.1082Z" fill="#FAFAFA"/>
<path d="M33.7685 41.5807L34.3079 41.2665C33.8486 40.7202 33.4582 39.75 33.4582 38.6986C33.4582 37.197 33.9829 36.5948 34.7796 36.5948C36.8302 36.5948 35.3191 41.3202 38.0839 41.3202C39.1504 41.3202 40.0126 40.4197 40.0126 38.6175C40.0126 37.7147 39.744 36.7308 39.3253 36.172L38.7859 36.4862C39.217 37.0873 39.4201 37.8656 39.4201 38.6301C39.4201 40.0231 38.8536 40.6379 38.0975 40.6379C35.9804 40.6379 37.4768 35.9126 34.7932 35.9126C33.6466 35.9126 32.8634 36.9091 32.8634 38.7261C32.8634 39.8997 33.255 41.0208 33.7685 41.5807Z" fill="#FAFAFA"/>
<path d="M61.8744 11.6677C61.8744 13.1876 63.091 14.4207 64.593 14.4207C66.0939 14.4207 67.3105 13.1876 67.3105 11.6677C67.3105 10.1478 66.0939 8.91477 64.593 8.91477C63.091 8.91477 61.8744 10.1478 61.8744 11.6677Z" fill="#E0E0E0"/>
<path d="M63.7524 58.2273H65.4327V19.2381H63.7524V58.2273Z" fill="#E0E0E0"/>
<path d="M67.0649 106.263L69.4867 102.271C89.08 69.9868 124.105 50.0888 161.504 51.3779C167.437 51.5813 173.355 52.2955 179.176 53.5411C214.107 61.0183 244.5 87.4312 257.1 121.261C264.509 141.155 266.579 164.061 280.64 179.853C298.939 200.405 330.006 201.05 357.32 200.199C384.634 199.348 415.721 200.073 433.931 220.707C445.335 233.629 448.96 252.004 448.04 269.311C445.606 315.128 413.678 356.094 373.074 376.457C332.47 396.819 284.663 398.643 240.224 389.686C177.971 377.137 118.769 342.677 83.1835 289.451C47.5992 236.225 38.5936 163.71 67.0649 106.263Z" fill="#97999F"/>
<path d="M0.000107865 472.826C0.000107865 472.991 109.001 473.125 243.43 473.125C377.906 473.125 486.883 472.991 486.883 472.826C486.883 472.662 377.906 472.529 243.43 472.529C109.001 472.529 0.000107865 472.662 0.000107865 472.826Z" fill="#263238"/>
<path d="M355.06 79.9619C373.171 108.809 371.984 148.801 352.197 176.495C339.007 194.957 319.22 207.331 303.508 223.643C287.796 239.956 275.863 263.996 284.154 285.18C292.596 306.744 317.32 315.516 335.835 329.177C356.002 344.056 370.168 367.037 374.507 391.921C378.847 416.802 373.312 443.308 359.397 464.281H167.073C167.073 464.281 133.288 399.081 176.725 349.394C220.163 299.706 243.489 298.892 241.881 266.309C240.272 233.727 217.749 223.138 204.88 210.919C192.009 198.701 129.267 170.192 166.269 79.9619H355.06Z" fill="#FAFAFA"/>
<path d="M355.06 79.9623C355.06 79.9623 353.943 79.944 351.749 79.9349C349.547 79.9292 346.281 79.92 342 79.9086C333.416 79.896 320.766 79.8777 304.47 79.8537C271.846 79.8297 224.637 79.7955 166.269 79.7509H166.126L166.076 79.8811C163.449 86.6395 160.792 93.5967 158.911 100.97C156.973 108.311 155.385 115.96 154.823 123.886C154.234 131.796 154.488 139.965 156.043 148.076C157.649 156.167 160.511 164.18 164.737 171.592C166.839 175.306 169.31 178.833 171.981 182.236C174.682 185.619 177.673 188.799 180.84 191.834C184.012 194.866 187.39 197.722 190.896 200.454C194.397 203.197 198.049 205.787 201.616 208.523C203.402 209.888 205.034 211.418 206.736 212.951C208.447 214.455 210.209 215.907 211.987 217.344C215.54 220.223 219.131 223.1 222.518 226.251C229.358 232.448 235.135 240.187 238.314 249.193C239.856 253.688 240.962 258.397 241.322 263.216C241.418 264.421 241.577 265.622 241.622 266.832C241.644 268.042 241.713 269.256 241.656 270.468C241.64 272.896 241.37 275.322 240.933 277.714C240.031 282.497 238.048 287.081 235.161 291.055C232.318 295.065 228.814 298.595 225.186 301.991C217.884 308.751 210.14 315.205 202.721 322.172C195.266 329.102 188.026 336.416 181.054 344.104C177.594 347.961 174.077 351.842 171.051 356.147C167.924 360.37 165.298 364.985 162.989 369.759C158.44 379.354 155.628 389.88 154.707 400.644C153.716 411.408 154.473 422.376 156.58 433.109C157.622 438.482 159.007 443.803 160.706 449.037C162.407 454.272 164.369 459.434 166.811 464.42L166.89 464.579H167.073H172.025C237.677 464.575 301.024 464.571 359.397 464.566H359.547L359.631 464.439C368.793 450.509 374.235 434.507 375.735 418.469C377.329 402.43 374.892 386.343 369.081 372.066C363.346 357.737 354.43 345.172 343.658 335.295C338.288 330.317 332.3 326.244 326.302 322.475C320.297 318.699 314.242 315.208 308.516 311.389C302.816 307.561 297.322 303.483 292.862 298.494C288.386 293.547 284.966 287.735 283.175 281.489C281.376 275.237 281.359 268.681 282.411 262.508C283.477 256.313 285.631 250.455 288.355 245.06C291.087 239.657 294.4 234.696 298.035 230.168C301.661 225.627 305.692 221.597 309.749 217.792C317.891 210.203 326.222 203.565 333.722 196.744C337.479 193.34 341.038 189.905 344.313 186.375C347.566 182.826 350.539 179.187 353.093 175.416C358.244 167.894 361.776 159.969 364.096 152.319C366.421 144.66 367.577 137.256 367.842 130.444C368 128.745 367.938 127.077 367.934 125.448C367.914 123.82 367.961 122.228 367.795 120.683C367.678 119.137 367.563 117.629 367.451 116.162C367.277 114.7 367.039 113.287 366.845 111.909C365.153 100.875 361.865 92.8151 359.302 87.6543C358.69 86.3435 358.148 85.1916 357.563 84.258C357.014 83.3106 356.553 82.5141 356.182 81.8742C355.442 80.6 355.06 79.9623 355.06 79.9623C355.138 80.1029 355.453 80.664 356.15 81.913C356.514 82.5541 356.965 83.3506 357.503 84.3003C358.076 85.2293 358.609 86.3847 359.215 87.6989C361.747 92.8665 364.999 100.924 366.659 111.937C366.849 113.314 367.083 114.725 367.253 116.184C367.36 117.649 367.472 119.153 367.584 120.695C367.747 122.236 367.695 123.824 367.713 125.449C367.712 127.073 367.771 128.737 367.609 130.433C367.331 137.227 366.165 144.608 363.834 152.238C361.507 159.859 357.975 167.75 352.835 175.234C350.285 178.986 347.317 182.61 344.07 186.144C340.799 189.661 337.242 193.084 333.488 196.477C325.991 203.28 317.652 209.908 309.486 217.503C305.419 221.31 301.368 225.351 297.721 229.91C294.066 234.453 290.733 239.433 287.98 244.865C285.236 250.289 283.062 256.184 281.981 262.432C280.915 268.657 280.925 275.286 282.74 281.615C284.547 287.937 288.006 293.819 292.518 298.813C297.015 303.85 302.537 307.951 308.252 311.795C313.992 315.631 320.05 319.127 326.042 322.899C332.029 326.667 337.981 330.721 343.32 335.675C354.03 345.505 362.894 358.013 368.592 372.268C374.366 386.472 376.783 402.463 375.191 418.416C373.693 434.365 368.276 450.278 359.163 464.123L359.397 463.997C301.024 463.994 237.677 463.989 172.025 463.985H167.073L167.333 464.143C164.92 459.217 162.954 454.057 161.264 448.852C159.572 443.64 158.194 438.342 157.156 432.995C155.058 422.309 154.304 411.396 155.289 400.698C156.203 389.999 158.997 379.544 163.513 370.013C165.805 365.272 168.411 360.687 171.519 356.491C174.521 352.217 178.018 348.356 181.478 344.497C188.439 336.821 195.663 329.517 203.106 322.596C210.513 315.635 218.245 309.191 225.568 302.408C229.205 299 232.734 295.446 235.614 291.383C238.535 287.357 240.561 282.68 241.476 277.821C241.918 275.391 242.188 272.932 242.204 270.48C242.262 269.254 242.193 268.031 242.168 266.809C242.123 265.589 241.963 264.377 241.866 263.163C241.5 258.305 240.383 253.547 238.823 249.007C235.609 239.905 229.757 232.083 222.876 225.857C219.468 222.69 215.865 219.806 212.313 216.932C210.536 215.495 208.779 214.049 207.078 212.555C205.406 211.049 203.729 209.48 201.931 208.108C198.346 205.361 194.699 202.78 191.208 200.046C187.708 197.323 184.343 194.48 181.184 191.464C178.031 188.444 175.053 185.283 172.365 181.921C169.708 178.538 167.248 175.034 165.159 171.345C160.956 163.982 158.108 156.025 156.506 147.985C154.954 139.924 154.695 131.797 155.276 123.921C155.829 116.029 157.405 108.407 159.331 101.085C161.2 93.7327 163.845 86.7892 166.461 80.0435L166.269 80.1726C224.6 80.1291 271.784 80.0949 304.388 80.0697C320.696 80.0469 333.357 80.0286 341.946 80.016C346.24 80.0046 349.514 79.9943 351.721 79.9886C353.924 79.9806 355.06 79.9623 355.06 79.9623Z" fill="#263238"/>
<path d="M173.944 132.867C145.617 137.582 190.28 188.385 215.56 208.432C230.199 220.039 245.919 232.627 252.871 250.088C260.758 269.899 254.912 292.166 258.735 312.096C259.369 315.403 264.199 314.883 264.15 311.513C263.962 298.433 264.306 285.358 266.447 272.48C269.483 254.216 276.417 236.145 289.059 222.76C299.378 211.833 312.91 204.573 323.918 194.357C339.988 179.444 356.497 160.209 358.106 138.196C358.106 138.196 327.25 113.027 310.123 116.203C290.107 119.916 270.401 151.193 239.385 147.611C217.73 145.111 206.801 127.398 173.944 132.867Z" fill="#F9E547"/>
<path d="M171.428 404.785C172.145 397.611 174.034 389.493 180.32 386.109C184.129 384.059 188.766 384.287 192.937 385.397C197.108 386.509 201.028 388.429 205.162 389.673C213.297 392.119 222.209 391.834 230.176 388.87C237.861 386.011 244.458 380.843 251.595 376.78C258.73 372.717 267.084 369.69 275.029 371.692C288.73 375.144 295.858 391.847 309.404 395.879C315.424 397.671 321.889 396.666 328.009 395.261C334.129 393.856 340.272 392.055 346.542 392.292C351.456 392.478 356.568 394.198 360.012 397.608L359.976 397.561C360.011 397.595 360.042 397.634 360.076 397.67C360.642 398.238 361.162 398.852 361.628 399.514C365.83 405.185 366.501 412.81 365.209 419.736C363.762 427.49 360.185 434.658 356.346 441.524C351.825 449.614 346.688 457.666 339.212 463.06C329.989 469.712 318.39 465.122 307.102 466.024C280.77 468.127 252.441 469.564 226.106 467.497C212.196 466.405 199.157 467.931 188.119 459.289C180.352 453.21 175.304 444.046 172.866 434.416C170.431 424.785 170.442 414.674 171.428 404.785Z" fill="#F9E547"/>
<g opacity="0.240005">
<path opacity="0.240005" d="M221.124 391.046C222.611 393.351 223.244 396.438 221.811 398.779C220.378 401.118 218.44 403.246 217.819 405.926C216.842 410.137 219.345 414.254 221.212 418.144C224.551 425.103 226.07 433.039 224.944 440.691C223.818 448.344 219.941 455.654 213.894 460.38C211.219 462.471 207.745 464.092 204.521 463.068C201.487 462.105 199.524 458.986 198.922 455.825C198.319 452.662 198.815 449.405 199.213 446.21C201.052 431.38 200.675 416.27 198.099 401.554C197.668 399.093 197.257 396.284 198.796 394.331C199.779 393.084 201.348 392.498 202.843 391.994C208.713 390.016 215.046 392.214 221.124 391.046Z" fill="black"/>
</g>
<path d="M373.513 473.125C373.513 473.125 374.042 464.186 362.53 459.21H160.24C160.24 459.21 149.691 464.617 148.394 472.939L373.513 473.125Z" fill="#263238"/>
<path d="M164.528 81.0515C164.634 81.1018 164.74 81.1521 164.848 81.2012L355.061 79.9613C355.061 79.9613 355.735 79.5248 356.748 78.7226C362.166 74.4314 359.125 65.6149 352.245 65.6709L167.63 67.1805C160.009 67.2434 157.638 77.7535 164.528 81.0515Z" fill="#263238"/>
<g opacity="0.240005">
<path opacity="0.240005" d="M194.971 154.527C194.587 155.269 196.016 156.876 198.742 159.326C201.479 161.78 205.472 165.145 210.548 169.289C215.652 173.399 221.836 178.355 229.712 182.977C233.657 185.287 238.05 187.381 242.853 189.085C245.268 189.906 247.771 190.668 250.403 191.198C253.02 191.766 255.753 192.143 258.561 192.275C264.163 192.6 269.861 191.77 274.961 190.005C280.031 188.224 284.356 185.714 288.138 183.194C291.928 180.648 295.198 178.135 298.278 175.73C301.347 173.318 304.143 170.995 306.643 168.809C316.634 160.042 321.888 153.596 320.876 152.352C319.829 151.058 312.756 155.159 301.733 162.017C298.978 163.73 295.965 165.605 292.731 167.616C289.5 169.609 286.024 171.808 282.48 173.842C278.926 175.876 275.216 177.726 271.369 178.927C267.548 180.084 263.473 180.632 259.138 180.386C250.475 179.938 242.066 176.847 234.783 173.288C227.461 169.659 220.913 165.554 215.203 162.317C209.499 159.043 204.621 156.622 201.069 155.338C197.513 154.045 195.338 153.812 194.971 154.527Z" fill="black"/>
</g>
<path d="M264.009 335.97C261.921 335.227 259.425 337.353 259.794 339.564C260.162 341.773 263.209 342.954 264.939 341.559C266.67 340.162 266.215 336.892 264.17 336.033" fill="#F9E547"/>
<path d="M332.043 186.403C332.058 186.417 332.289 186.18 332.714 185.718C333.172 185.21 333.785 184.529 334.557 183.672C335.335 182.765 336.361 181.715 337.408 180.375C338.471 179.035 339.674 177.519 341 175.849C342.227 174.092 343.619 172.2 345.02 170.103C345.685 169.03 346.373 167.921 347.08 166.78C347.429 166.205 347.807 165.637 348.145 165.032C348.472 164.423 348.803 163.805 349.138 163.179C351.914 158.227 354.388 152.429 356.145 146.094C357.904 139.756 358.729 133.491 358.805 127.787C358.809 126.362 358.731 124.972 358.701 123.623C358.669 122.949 358.68 122.281 358.615 121.63C358.546 120.98 358.478 120.337 358.412 119.708C358.27 118.449 358.17 117.228 358.003 116.064C357.797 114.909 357.599 113.798 357.41 112.738C357.086 110.607 356.531 108.736 356.131 107.075C355.914 106.249 355.745 105.472 355.53 104.773C355.306 104.082 355.101 103.447 354.915 102.87C354.55 101.77 354.26 100.895 354.046 100.244C353.84 99.6462 353.723 99.3365 353.705 99.3423C353.686 99.3491 353.765 99.6725 353.933 100.283C354.121 100.941 354.376 101.826 354.696 102.937C354.867 103.517 355.056 104.156 355.26 104.85C355.459 105.552 355.612 106.33 355.813 107.158C356.18 108.819 356.706 110.689 357 112.814C357.177 113.871 357.362 114.979 357.555 116.13C357.709 117.288 357.796 118.503 357.928 119.754C357.989 120.381 358.051 121.018 358.114 121.665C358.174 122.313 358.158 122.976 358.184 123.646C358.207 124.985 358.275 126.365 358.263 127.779C358.159 133.439 357.324 139.647 355.579 145.933C353.836 152.216 351.398 157.978 348.663 162.915C348.333 163.54 348.007 164.156 347.685 164.765C347.354 165.367 346.981 165.935 346.638 166.509C345.942 167.65 345.266 168.759 344.611 169.832C343.236 171.93 341.868 173.829 340.667 175.596C339.37 177.283 338.193 178.812 337.154 180.164C336.134 181.521 335.135 182.59 334.385 183.52C333.648 184.407 333.062 185.112 332.626 185.638C332.23 186.126 332.028 186.39 332.043 186.403Z" fill="#263238"/>
<path d="M342.753 356.177C342.762 356.171 342.69 356.044 342.542 355.801C342.375 355.533 342.153 355.178 341.871 354.725C341.565 354.246 341.195 353.667 340.761 352.987C340.54 352.643 340.302 352.274 340.049 351.88C339.772 351.501 339.447 351.122 339.118 350.708C338.45 349.882 337.711 348.967 336.903 347.968C336.035 347.021 335.039 346.04 333.996 344.96C331.853 342.861 329.262 340.622 326.249 338.357C320.257 333.76 312.529 329.191 304.153 323.86C299.996 321.151 295.62 318.296 291.484 314.822C287.341 311.373 283.347 307.397 280.114 302.655C273.737 293.055 271.148 281.934 270.921 271.993C270.664 261.977 272.767 253.057 275.247 245.946C277.755 238.808 280.633 233.376 282.723 229.713C283.768 227.876 284.626 226.477 285.217 225.536C285.497 225.082 285.716 224.726 285.882 224.457C286.028 224.212 286.099 224.085 286.092 224.079C286.083 224.073 285.996 224.19 285.832 224.424C285.654 224.684 285.418 225.03 285.118 225.47C284.494 226.392 283.603 227.773 282.525 229.595C280.371 233.23 277.427 238.65 274.855 245.804C272.315 252.932 270.151 261.902 270.38 272.007C270.422 274.524 270.622 277.103 271.002 279.714C271.36 282.326 271.904 284.97 272.654 287.606C274.106 292.891 276.436 298.14 279.626 302.987C282.902 307.795 286.942 311.806 291.12 315.273C295.292 318.767 299.69 321.62 303.863 324.323C312.272 329.639 320.003 334.159 326 338.696C329.019 340.93 331.615 343.135 333.768 345.2C334.816 346.263 335.82 347.228 336.696 348.159C337.513 349.142 338.263 350.04 338.939 350.851C339.273 351.258 339.603 351.631 339.887 352.002C340.146 352.388 340.391 352.751 340.618 353.089C341.068 353.754 341.453 354.321 341.77 354.79C342.073 355.228 342.311 355.573 342.49 355.831C342.655 356.063 342.744 356.181 342.753 356.177Z" fill="#263238"/>
<path d="M353.248 376.368C353.231 376.38 353.317 376.563 353.495 376.898C353.712 377.292 353.977 377.772 354.299 378.352C354.662 378.975 355.093 379.743 355.529 380.672C355.974 381.593 356.536 382.615 357.011 383.813C357.266 384.407 357.53 385.027 357.806 385.672C358.078 386.318 358.301 387.017 358.565 387.726C359.117 389.138 359.544 390.7 360.032 392.332C360.901 395.623 361.626 399.306 362.003 403.222C362.337 407.144 362.285 410.899 362.023 414.297C361.835 415.992 361.695 417.606 361.406 419.097C361.274 419.842 361.182 420.57 361.029 421.256C360.875 421.941 360.725 422.599 360.583 423.23C360.331 424.496 359.961 425.605 359.69 426.592C359.428 427.585 359.143 428.42 358.897 429.099C358.684 429.73 358.511 430.251 358.368 430.676C358.253 431.04 358.201 431.235 358.221 431.243C358.239 431.25 358.327 431.071 358.478 430.722C358.648 430.305 358.858 429.796 359.111 429.178C359.391 428.51 359.709 427.681 360.002 426.693C360.306 425.709 360.706 424.601 360.985 423.333C361.141 422.7 361.304 422.039 361.473 421.352C361.638 420.663 361.743 419.931 361.887 419.181C362.199 417.682 362.358 416.056 362.561 414.346C362.858 410.921 362.926 407.127 362.588 403.167C362.209 399.213 361.459 395.496 360.553 392.183C360.046 390.541 359.597 388.97 359.022 387.555C358.745 386.843 358.511 386.144 358.225 385.496C357.935 384.852 357.656 384.233 357.389 383.639C356.887 382.442 356.294 381.427 355.819 380.515C355.353 379.597 354.891 378.841 354.495 378.234C354.135 377.674 353.839 377.212 353.596 376.834C353.385 376.518 353.265 376.357 353.248 376.368Z" fill="#263238"/>
<path d="M213.722 403.833C213.717 403.842 213.795 403.899 213.951 404.001C214.14 404.121 214.37 404.267 214.656 404.447C215.323 404.853 216.237 405.41 217.393 406.114C217.994 406.475 218.657 406.871 219.381 407.306C220.12 407.717 220.952 408.11 221.832 408.561C223.607 409.428 225.577 410.532 227.902 411.422C229.052 411.899 230.255 412.399 231.509 412.919C232.767 413.43 234.125 413.825 235.504 414.308C238.251 415.324 241.292 416.048 244.47 416.888C250.879 418.332 258.049 419.39 265.633 419.636C273.221 419.793 280.438 419.114 286.913 418.01C290.132 417.339 293.206 416.777 296.001 415.907C297.404 415.498 298.781 415.176 300.063 414.732C301.341 414.279 302.569 413.843 303.742 413.427C306.109 412.662 308.135 411.664 309.951 410.892C310.853 410.487 311.705 410.14 312.464 409.766C313.208 409.373 313.891 409.009 314.51 408.681C315.701 408.04 316.643 407.532 317.329 407.163C317.623 406.998 317.861 406.863 318.055 406.755C318.216 406.661 318.297 406.607 318.292 406.598C318.287 406.589 318.197 406.624 318.025 406.702C317.825 406.797 317.577 406.912 317.273 407.056C316.575 407.401 315.618 407.875 314.407 408.475C313.783 408.788 313.095 409.134 312.344 409.51C311.58 409.865 310.725 410.198 309.82 410.585C307.997 411.327 305.969 412.294 303.602 413.031C302.43 413.433 301.204 413.856 299.927 414.294C298.647 414.723 297.273 415.034 295.875 415.431C293.086 416.277 290.024 416.817 286.821 417.47C280.374 418.538 273.195 419.196 265.649 419.042C258.107 418.797 250.974 417.761 244.592 416.353C241.426 415.532 238.395 414.831 235.656 413.839C234.279 413.369 232.924 412.986 231.667 412.489C230.414 411.984 229.212 411.497 228.062 411.033C225.737 410.173 223.762 409.099 221.977 408.263C221.095 407.828 220.258 407.452 219.513 407.055C218.783 406.639 218.113 406.258 217.506 405.911C216.328 405.25 215.396 404.726 214.718 404.345C214.42 404.186 214.179 404.055 213.983 403.95C213.816 403.863 213.728 403.823 213.722 403.833Z" fill="#263238"/>
<path d="M201.952 161.977C201.945 161.985 202.027 162.061 202.193 162.203C202.384 162.363 202.628 162.566 202.932 162.82C203.623 163.38 204.588 164.159 205.814 165.149C208.324 167.159 211.953 170.074 216.542 173.547C221.137 177.001 226.706 181.023 233.327 184.784C236.67 186.592 240.229 188.439 244.141 189.821C248.037 191.213 252.229 192.281 256.617 192.633C265.434 193.236 273.793 190.974 280.593 187.583C283.993 185.857 287.06 183.923 289.852 182.006C292.608 180.037 295.125 178.132 297.35 176.306C301.818 172.675 305.318 169.602 307.75 167.496C308.935 166.458 309.869 165.641 310.539 165.055C310.832 164.79 311.068 164.577 311.254 164.409C311.414 164.262 311.491 164.182 311.486 164.174C311.479 164.166 311.388 164.23 311.216 164.363C311.02 164.519 310.773 164.717 310.462 164.964C309.776 165.528 308.819 166.317 307.604 167.319C305.125 169.37 301.584 172.394 297.092 175.976C294.854 177.778 292.332 179.656 289.577 181.598C286.787 183.488 283.731 185.393 280.355 187.09C273.608 190.421 265.352 192.633 256.661 192.038C252.336 191.692 248.196 190.644 244.335 189.273C240.459 187.912 236.918 186.088 233.588 184.303C226.989 180.59 221.408 176.613 216.788 173.208C212.175 169.784 208.508 166.919 205.954 164.966C204.7 164.013 203.714 163.263 203.005 162.725C202.686 162.491 202.431 162.303 202.229 162.155C202.053 162.028 201.959 161.969 201.952 161.977Z" fill="#263238"/>
<g opacity="0.240005">
<g opacity="0.240005">
<path d="M303.731 413.431C298.384 409.251 290.87 410.265 284.258 411.671C277.647 413.078 270.987 415.367 264.297 414.42C259.254 413.704 254.628 411.193 249.652 410.101C244.676 409.01 238.639 409.817 235.88 414.15C257.772 421.359 281.992 421.103 303.731 413.431Z" fill="black"/>
</g>
</g>
<path d="M117.108 382.421L141.412 354.866L141.659 388.362L134.343 409.847L207.043 422.616L210.127 364.529L215.36 319.919C216.001 314.451 212.922 309.235 207.865 307.218L187.857 299.24L159.679 304.474L148.343 308.837C143.585 310.669 139.342 313.656 135.991 317.538L101.868 357.053" fill="#F9E547"/>
<path d="M143.117 348.275C143.112 348.158 141.518 348.397 139.012 347.983C136.531 347.591 133.103 346.362 130.259 343.712C127.42 341.055 125.932 337.693 125.347 335.222C124.737 332.727 124.843 331.098 124.727 331.103C124.692 331.101 124.635 331.502 124.624 332.233C124.612 332.966 124.682 334.028 124.943 335.316C125.437 337.872 126.911 341.39 129.861 344.15C132.815 346.904 136.396 348.107 138.953 348.399C140.241 348.558 141.294 348.543 142.013 348.471C142.731 348.401 143.122 348.311 143.117 348.275Z" fill="black"/>
<path d="M140.992 386.935C140.822 386.934 140.778 375.331 140.893 361.02C141.01 346.705 141.241 335.106 141.41 335.107C141.58 335.108 141.625 346.711 141.508 361.025C141.392 375.335 141.161 386.937 140.992 386.935Z" fill="#263238"/>
<path d="M143.654 395.451L187.582 377.543C191.125 376.099 193.552 372.744 193.842 368.888L197.056 326.24C197.056 326.24 196.676 308.1 207.864 307.218L214.23 309.756C222.456 314.18 224.494 326.308 223.374 335.671C221.782 348.976 221.121 367.806 219.339 379.354C217.882 388.8 212.539 397.108 203.41 399.542L149.304 411.403L143.654 395.451Z" fill="#F9E547"/>
<path d="M196.427 332.745C196.407 332.743 196.36 333.08 196.289 333.721C196.219 334.417 196.125 335.353 196.006 336.531C195.783 339.032 195.466 342.55 195.078 346.875C194.706 351.261 194.265 356.456 193.775 362.22C193.656 363.664 193.534 365.144 193.407 366.655C193.277 368.167 193.186 369.716 192.847 371.218C192.525 372.726 191.809 374.14 190.664 375.215C189.524 376.294 188.098 377.085 186.61 377.768C174.497 383.076 163.334 387.459 155.23 390.532C151.208 392.034 147.934 393.254 145.609 394.121C144.511 394.53 143.64 394.857 142.992 395.098C142.396 395.327 142.087 395.456 142.094 395.477C142.099 395.495 142.423 395.404 143.032 395.212C143.687 394.997 144.572 394.706 145.684 394.34C147.984 393.569 151.298 392.413 155.373 390.927C163.524 387.952 174.706 383.634 186.854 378.31C188.364 377.614 189.848 376.8 191.065 375.645C192.294 374.497 193.081 372.925 193.407 371.35C193.758 369.772 193.841 368.212 193.966 366.705C194.086 365.193 194.201 363.712 194.315 362.267C194.757 356.498 195.156 351.298 195.492 346.909C195.802 342.578 196.055 339.053 196.234 336.55C196.308 335.367 196.364 334.429 196.407 333.73C196.44 333.086 196.448 332.746 196.427 332.745Z" fill="#263238"/>
<path d="M221.596 355.93C221.574 355.929 221.547 356.127 221.509 356.502C221.469 356.947 221.422 357.49 221.363 358.148C221.233 359.668 221.056 361.715 220.843 364.2C220.601 366.753 220.297 369.791 219.858 373.148C219.406 376.5 218.874 380.198 217.875 383.952C217.401 385.848 216.737 387.6 215.731 389.102C214.723 390.618 213.606 391.98 212.45 393.186C210.127 395.591 207.647 397.354 205.42 398.526C200.926 400.891 197.659 400.926 197.704 401.083C197.706 401.104 197.903 401.098 198.276 401.07C198.65 401.044 199.201 401 199.901 400.857C201.302 400.608 203.316 400.05 205.609 398.901C207.898 397.759 210.448 395.999 212.835 393.571C214.023 392.352 215.173 390.972 216.208 389.428C217.259 387.88 217.972 386.008 218.441 384.11C219.455 380.298 219.971 376.588 220.396 373.219C220.805 369.846 221.069 366.797 221.256 364.236C221.441 361.674 221.539 359.598 221.591 358.162C221.606 357.501 221.618 356.955 221.626 356.508C221.627 356.13 221.616 355.931 221.596 355.93Z" fill="#263238"/>
<path d="M202.811 385.774C202.872 385.757 202.684 384.805 202.012 383.404C201.346 382.004 200.115 380.195 198.323 378.638C196.525 377.089 194.567 376.141 193.1 375.696C191.626 375.242 190.669 375.204 190.661 375.267C190.644 375.367 191.566 375.552 192.962 376.092C194.358 376.628 196.207 377.598 197.942 379.091C199.669 380.592 200.905 382.289 201.645 383.602C202.392 384.913 202.717 385.807 202.811 385.774Z" fill="#263238"/>
<path d="M194.17 353.34C194.165 353.331 194.071 353.373 193.892 353.464C193.684 353.574 193.427 353.711 193.106 353.882C192.401 354.218 191.373 354.745 189.971 355.228C187.21 356.199 182.882 357.186 177.659 356.293C172.504 355.439 166.507 352.363 162.355 346.664C160.299 343.85 158.709 340.384 158.347 336.585C158.165 334.699 158.317 332.733 158.933 330.884C159.536 329.037 160.639 327.324 162.1 325.984C163.554 324.639 165.361 323.692 167.256 323.446C169.126 323.146 171.128 323.647 172.425 324.917C173.051 325.554 173.442 326.407 173.433 327.284C173.436 328.161 173.103 329.026 172.584 329.729C171.545 331.168 169.791 331.838 168.115 332.089C164.694 332.564 161.329 331.938 158.514 330.698C155.685 329.449 153.373 327.593 151.709 325.545C150.041 323.488 149.013 321.264 148.398 319.246C147.782 317.221 147.593 315.385 147.563 313.893C147.541 312.4 147.695 311.242 147.81 310.463C147.875 310.103 147.927 309.813 147.97 309.579C148.005 309.379 148.018 309.275 148.009 309.273C148.009 309.273 147.386 310.859 147.335 313.895C147.329 315.404 147.486 317.271 148.084 319.341C148.678 321.404 149.699 323.686 151.386 325.81C153.071 327.926 155.424 329.849 158.317 331.149C161.202 332.442 164.644 333.109 168.195 332.631C169.941 332.375 171.855 331.681 173.034 330.068C173.613 329.285 174.002 328.313 174.003 327.282C174.016 326.25 173.551 325.232 172.834 324.505C171.361 323.062 169.184 322.548 167.179 322.86C165.146 323.121 163.233 324.128 161.705 325.543C160.167 326.955 159.014 328.749 158.378 330.697C157.735 332.639 157.582 334.686 157.774 336.641C158.158 340.574 159.807 344.121 161.92 346.989C166.191 352.798 172.331 355.89 177.591 356.707C182.915 357.562 187.285 356.491 190.049 355.446C192.843 354.365 194.17 353.34 194.17 353.34Z" fill="black"/>
<path d="M222.945 341.964C222.973 341.939 222.728 341.607 222.224 341.052C221.718 340.505 220.933 339.751 219.851 338.962C217.718 337.34 214.187 335.862 210.132 335.476C208.107 335.257 206.139 335.356 204.405 335.719C202.669 336.084 201.176 336.676 199.993 337.289C198.804 337.899 197.907 338.503 197.308 338.944C196.713 339.39 196.405 339.664 196.428 339.696C196.489 339.79 197.802 338.784 200.171 337.669C202.515 336.533 206.104 335.585 210.071 336.068C214.045 336.45 217.469 337.813 219.615 339.31C221.79 340.776 222.865 342.048 222.945 341.964Z" fill="black"/>
<path d="M215.92 311.468C215.83 311.367 214.791 312.824 212.365 314.086C211.164 314.716 209.614 315.245 207.839 315.43C206.069 315.619 204.072 315.415 202.172 314.637C200.285 313.828 198.729 312.542 197.609 311.142C196.481 309.741 195.753 308.257 195.345 306.953C194.507 304.323 194.79 302.551 194.655 302.556C194.625 302.553 194.537 302.98 194.509 303.769C194.478 304.555 194.57 305.709 194.948 307.075C195.319 308.442 196.034 310.005 197.187 311.486C198.331 312.966 199.955 314.334 201.948 315.187C203.953 316.009 206.057 316.203 207.898 315.974C209.747 315.751 211.344 315.158 212.559 314.457C213.78 313.76 214.65 313.011 215.177 312.43C215.709 311.853 215.944 311.488 215.92 311.468Z" fill="black"/>
<path d="M177.64 381.597C177.66 381.593 177.628 381.305 177.548 380.754C177.424 380.216 177.25 379.4 176.77 378.452C175.883 376.535 173.676 374.135 170.194 372.671C166.76 371.109 162.039 370.809 157.279 372.203C154.957 372.903 152.291 373.765 150.549 376.062C149.697 377.192 149.403 378.873 150.054 380.246C150.676 381.624 151.899 382.574 153.185 383.238C154.495 383.885 155.917 384.252 157.344 384.281C158.759 384.308 160.232 383.953 161.337 383.026C162.451 382.114 163.038 380.705 163.125 379.361C163.227 378.005 162.955 376.696 162.527 375.508C160.654 370.749 156.868 367.723 153.473 366.226C150.019 364.697 146.894 364.536 144.832 364.723C142.752 364.941 141.675 365.397 141.675 365.397C141.692 365.474 142.792 365.097 144.848 364.954C146.888 364.84 149.947 365.065 153.302 366.61C154.966 367.38 156.684 368.485 158.232 369.998C159.771 371.504 161.157 373.431 162.018 375.694C162.422 376.83 162.665 378.073 162.566 379.314C162.476 380.55 161.951 381.776 160.97 382.575C160.003 383.385 158.674 383.715 157.352 383.688C156.025 383.663 154.676 383.313 153.448 382.705C152.237 382.084 151.118 381.192 150.587 380.001C150.033 378.821 150.264 377.42 151.016 376.403C151.759 375.365 152.846 374.616 153.956 374.04C155.071 373.47 156.268 373.082 157.427 372.73C162.088 371.337 166.664 371.588 170.036 373.06C173.455 374.443 175.639 376.72 176.568 378.559C177.528 380.405 177.557 381.621 177.64 381.597Z" fill="black"/>
<path d="M206.887 397.657C206.905 397.544 205.213 397.4 202.676 396.484C200.152 395.588 196.792 393.755 194.039 390.675C191.288 387.591 189.825 384.019 189.199 381.388C188.555 378.739 188.583 377.02 188.471 377.026C188.435 377.026 188.394 377.453 188.408 378.227C188.42 379.001 188.518 380.122 188.794 381.483C189.326 384.189 190.768 387.896 193.604 391.073C196.438 394.249 199.937 396.073 202.541 396.882C203.85 397.298 204.942 397.509 205.701 397.599C206.461 397.69 206.884 397.692 206.887 397.657Z" fill="black"/>
<path d="M221.124 364.505C221.129 364.485 220.948 364.41 220.593 364.29C220.239 364.172 219.713 364.007 219.026 363.831C217.655 363.495 215.609 363.035 213.041 363.216C211.764 363.318 210.366 363.613 208.973 364.234C207.589 364.856 206.205 365.831 205.178 367.25C204.171 368.668 203.553 370.512 203.702 372.436C203.773 373.395 204.063 374.358 204.574 375.219C205.089 376.066 205.861 376.834 206.876 377.168C207.878 377.486 209.053 377.325 209.844 376.574C210.624 375.808 210.819 374.734 210.868 373.803C210.939 371.906 210.534 370.088 209.832 368.511C208.435 365.32 205.836 363.227 203.425 362.355C200.998 361.444 198.846 361.512 197.451 361.756C196.747 361.878 196.215 362.037 195.862 362.163C195.512 362.296 195.333 362.376 195.338 362.396C195.356 362.454 196.092 362.158 197.484 361.984C198.859 361.815 200.953 361.819 203.276 362.747C205.582 363.639 208.026 365.672 209.338 368.734C209.995 370.243 210.367 371.984 210.292 373.772C210.248 374.647 210.046 375.564 209.441 376.144C208.847 376.716 207.88 376.867 207.053 376.6C206.218 376.328 205.534 375.669 205.072 374.909C204.612 374.138 204.345 373.266 204.276 372.387C204.128 370.625 204.691 368.897 205.618 367.57C206.561 366.241 207.859 365.295 209.174 364.684C210.497 364.069 211.842 363.76 213.077 363.635C215.567 363.405 217.599 363.792 218.975 364.057C220.354 364.343 221.11 364.55 221.124 364.505Z" fill="black"/>
<g opacity="0.300003">
<path opacity="0.300003" d="M156.278 390.367C160.975 387.679 165.57 385.615 170.483 383.355C175.393 381.095 180.205 378.194 183.419 373.807C189.481 365.532 188.792 353.589 194.996 345.425C194.591 350.916 194.186 356.406 193.78 361.897C193.409 366.929 194.17 371.904 190.97 375.325C188.274 378.205 183.015 380.415 179.294 381.658C171.813 384.156 163.759 387.867 156.278 390.367Z" fill="black"/>
</g>
<path d="M79.9481 453.049C79.9481 453.049 43.1935 463.351 41.7186 463.877C39.5033 464.665 39.8757 472.88 43.321 472.751C44.9506 472.691 71.5542 473.755 74.9149 473.543C78.2768 473.33 88.4165 469.283 88.4165 469.283L79.9481 453.049Z" fill="#F6E246"/>
<path d="M64.6358 467.251C64.4518 467.276 64.2024 465.308 63.0164 463.255C61.8585 461.183 60.3023 459.978 60.4185 459.829C60.4817 459.685 62.3077 460.734 63.549 462.944C64.8118 465.14 64.7915 467.267 64.6358 467.251Z" fill="#263238"/>
<path d="M68.4689 465.491C68.2884 465.523 67.9171 463.763 66.9386 461.819C65.9783 459.864 64.8035 458.515 64.9355 458.387C65.0371 458.264 66.4726 459.481 67.4871 461.539C68.5152 463.588 68.6258 465.481 68.4689 465.491Z" fill="#263238"/>
<path d="M72.0629 464.516C71.8778 464.504 72.02 462.645 71.2029 460.585C70.4231 458.508 69.0734 457.24 69.2021 457.104C69.2754 456.962 70.9231 458.112 71.7762 460.357C72.652 462.591 72.213 464.569 72.0629 464.516Z" fill="#263238"/>
<path d="M71.4114 459.709C71.3448 459.726 71.0198 458.685 71.0164 456.939C71.0187 456.07 71.118 455.027 71.3888 453.904C71.5242 453.343 71.7059 452.762 71.9361 452.176C72.0546 451.881 72.1901 451.542 72.5241 451.264C72.8672 450.953 73.4912 451.017 73.7869 451.328C74.1232 451.625 74.2304 452.045 74.2767 452.381C74.3139 452.722 74.3331 453.041 74.3241 453.363C74.3151 454.005 74.2338 454.618 74.0984 455.185C73.8264 456.322 73.3885 457.275 72.9665 458.031C72.1099 459.541 71.3674 460.313 71.3155 460.272C71.2308 460.212 71.847 459.346 72.5805 457.827C72.9417 457.067 73.3186 456.136 73.5454 455.06C73.6583 454.523 73.7215 453.951 73.7215 453.359C73.7057 452.787 73.7136 452.072 73.3829 451.798C73.208 451.65 73.05 451.64 72.8965 451.757C72.7351 451.881 72.5986 452.137 72.4948 452.406C72.2668 452.963 72.0817 453.514 71.9373 454.049C71.6484 455.119 71.5084 456.114 71.4509 456.955C71.3437 458.64 71.5118 459.693 71.4114 459.709Z" fill="#263238"/>
<path d="M71.4566 459.33C71.4397 459.261 72.3267 458.954 73.8276 458.942C74.5747 458.941 75.4708 459.02 76.4356 459.266C76.9119 459.397 77.4231 459.522 77.9366 459.827C78.4399 460.085 78.9669 460.793 78.7683 461.527C78.6103 462.22 78.0246 462.704 77.4445 462.856C76.8588 463.021 76.2912 462.963 75.7958 462.852C74.7858 462.618 74.0026 462.115 73.4078 461.662C72.2297 460.727 71.6541 460.011 71.6981 459.96C71.7625 459.88 72.4588 460.493 73.6561 461.302C74.2576 461.691 75.0126 462.114 75.9098 462.29C76.3578 462.376 76.8397 462.403 77.273 462.27C77.7064 462.15 78.0652 461.817 78.1679 461.386C78.274 460.971 78.0246 460.59 77.6228 460.348C77.229 460.1 76.7426 459.958 76.2889 459.821C75.3805 459.557 74.5296 459.437 73.813 459.384C72.373 459.281 71.4724 459.43 71.4566 459.33Z" fill="#263238"/>
<path d="M58.989 467.65C58.8073 467.628 58.9868 466.038 58.2634 464.292C57.5761 462.532 56.3483 461.523 56.4645 461.379C56.5244 461.227 58.0625 462.108 58.8333 464.057C59.6266 465.997 59.1369 467.716 58.989 467.65Z" fill="#263238"/>
<path d="M84.6352 469.368C84.6521 469.407 84.1454 469.646 83.2133 470.045C82.2687 470.406 80.8874 470.912 79.1235 471.329C75.6082 472.226 70.5976 472.735 65.0916 472.675C59.5833 472.614 54.619 472.36 51.0201 472.214C49.3161 472.122 47.8874 472.047 46.76 471.985C45.7556 471.918 45.2004 471.861 45.2015 471.817C45.2026 471.774 45.7601 471.75 46.7679 471.743C47.8964 471.751 49.3274 471.762 51.0337 471.774C54.7555 471.848 59.6646 471.945 65.095 472.052C70.575 472.111 75.527 471.677 79.0276 470.899C82.5418 470.168 84.5935 469.252 84.6352 469.368Z" fill="#263238"/>
<path d="M85.7218 470.216C85.6721 470.302 84.6666 469.707 82.9693 468.954C81.2901 468.223 78.7757 467.349 76.0131 467.782C73.2426 468.211 71.2801 470.095 70.0015 471.404C68.7128 472.759 67.9578 473.658 67.8833 473.594C67.828 473.548 68.4543 472.559 69.6822 471.104C70.3029 470.384 71.0894 469.551 72.1186 468.797C73.1377 468.039 74.449 467.394 75.9172 467.166C78.8796 466.708 81.4898 467.71 83.1521 468.554C84.8381 469.428 85.759 470.155 85.7218 470.216Z" fill="#263238"/>
<path d="M118.962 442.773C118.962 442.773 153.743 465.834 154.99 466.788C156.863 468.221 154.716 475.045 151.47 473.863C149.935 473.304 120.75 465.082 117.611 463.846C114.472 462.609 106.025 455.636 106.025 455.636L118.962 442.773Z" fill="#F9E547"/>
<path d="M129.291 461.013C129.138 460.981 129.756 458.948 131.619 457.244C133.464 455.519 135.519 455.083 135.536 455.238C135.601 455.417 133.756 456.086 132.033 457.703C130.286 459.295 129.459 461.094 129.291 461.013Z" fill="#263238"/>
<path d="M126.167 458.158C126.021 458.1 126.694 456.33 128.288 454.694C129.871 453.045 131.604 452.328 131.663 452.475C131.751 452.637 130.229 453.563 128.728 455.131C127.212 456.682 126.33 458.243 126.167 458.158Z" fill="#263238"/>
<path d="M123.035 456.124C122.876 456.129 123.051 454.109 124.556 452.248C126.042 450.373 127.957 449.783 127.985 449.941C128.066 450.109 126.4 450.904 125.034 452.642C123.638 454.355 123.215 456.169 123.035 456.124Z" fill="#263238"/>
<path d="M125.099 451.743C125.007 451.699 125.484 450.747 125.885 449.107C126.084 448.29 126.25 447.297 126.295 446.189C126.317 445.635 126.306 445.053 126.257 444.453C126.237 444.163 126.184 443.879 126.067 443.71C125.956 443.552 125.803 443.514 125.592 443.6C125.195 443.76 124.988 444.443 124.801 444.984C124.624 445.547 124.512 446.112 124.46 446.658C124.353 447.753 124.432 448.756 124.549 449.59C124.793 451.263 125.119 452.278 125.021 452.309C124.959 452.333 124.484 451.368 124.12 449.667C123.945 448.817 123.813 447.773 123.896 446.608C123.936 446.025 124.041 445.415 124.226 444.802C124.315 444.491 124.427 444.195 124.566 443.88C124.71 443.575 124.937 443.207 125.349 443.027C125.724 442.823 126.337 442.954 126.57 443.355C126.806 443.721 126.832 444.088 126.858 444.405C126.902 445.034 126.901 445.643 126.861 446.22C126.781 447.374 126.563 448.396 126.305 449.227C125.778 450.89 125.156 451.78 125.099 451.743Z" fill="#263238"/>
<path d="M125.168 451.368C125.124 451.459 124.309 451.04 122.908 450.694C122.209 450.526 121.363 450.38 120.417 450.35C119.945 450.342 119.438 450.327 118.988 450.441C118.532 450.548 118.181 450.835 118.157 451.263C118.126 451.704 118.369 452.134 118.745 452.382C119.119 452.641 119.586 452.765 120.038 452.82C120.946 452.926 121.792 452.757 122.481 452.572C123.866 452.167 124.712 451.799 124.751 451.894C124.777 451.957 124.014 452.462 122.61 452.991C121.908 453.239 121.01 453.477 119.978 453.39C119.473 453.343 118.915 453.224 118.407 452.887C117.899 452.564 117.486 451.921 117.544 451.214C117.574 450.453 118.288 449.941 118.844 449.849C119.427 449.717 119.951 449.755 120.444 449.776C121.436 449.839 122.315 450.039 123.026 450.27C124.453 450.742 125.204 451.309 125.168 451.368Z" fill="#263238"/>
<path d="M147.039 472.577C146.999 472.632 146.453 472.22 146.188 471.212C145.897 470.227 146.078 468.715 146.839 467.39C147.202 466.721 147.62 466.142 148.003 465.632C148.384 465.12 148.779 464.657 149.185 464.349C149.587 464.031 150.008 463.888 150.297 463.878C150.588 463.865 150.736 463.937 150.731 463.974C150.73 464.071 150.11 464.024 149.466 464.685C149.139 464.999 148.815 465.441 148.463 465.969C148.106 466.494 147.719 467.064 147.378 467.689C146.674 468.931 146.464 470.216 146.614 471.124C146.74 472.035 147.12 472.516 147.039 472.577Z" fill="#263238"/>
<path d="M134.552 463.13C134.391 463.147 134.44 461.357 135.778 459.755C137.097 458.136 138.826 457.769 138.838 457.931C138.905 458.105 137.433 458.689 136.249 460.154C135.039 461.594 134.732 463.165 134.552 463.13Z" fill="#263238"/>
<path d="M109.601 456.879C109.632 456.843 110.164 457.239 111.13 457.942C112.109 458.626 113.545 459.587 115.419 460.602C117.289 461.619 119.598 462.675 122.229 463.673C124.863 464.667 127.818 465.605 130.941 466.522C137.199 468.347 142.864 470.014 146.951 471.26C148.911 471.869 150.537 472.375 151.784 472.761C152.922 473.13 153.545 473.353 153.533 473.394C153.521 473.436 152.875 473.292 151.717 472.996C150.458 472.657 148.813 472.215 146.831 471.683C142.712 470.546 137.033 468.947 130.77 467.121C127.638 466.201 124.671 465.241 122.03 464.209C119.387 463.175 117.071 462.065 115.209 460.989C113.342 459.912 111.929 458.887 110.988 458.136C110.058 457.369 109.578 456.908 109.601 456.879" fill="#263238"/>
<path d="M108.312 457.353C108.294 457.283 109.391 456.873 111.26 456.56C113.096 456.267 115.883 456.115 118.569 457.464C119.9 458.133 120.955 459.149 121.697 460.185C122.452 461.221 122.953 462.257 123.329 463.134C124.062 464.896 124.363 466.03 124.295 466.058C124.205 466.094 123.756 465.007 122.934 463.32C122.109 461.68 120.802 459.281 118.293 458.02C115.791 456.758 113.132 456.817 111.314 456.997C109.47 457.192 108.335 457.451 108.312 457.353Z" fill="#263238"/>
<path d="M46.6833 386.533C46.6833 386.533 36.2491 390.306 36.2051 402.153C36.1215 424.846 81.4867 449.862 81.4867 449.862L141.856 409.357L145.641 407.805C145.641 407.805 64.146 376.806 46.6833 386.533Z" fill="#263238"/>
<path d="M111.275 429.814C111.25 429.849 110.691 429.463 109.702 428.735C108.712 428.009 107.302 426.931 105.574 425.577C102.117 422.872 97.4148 419.037 92.3556 414.641C87.2965 410.24 82.8422 406.112 79.679 403.062C78.0968 401.537 76.8306 400.286 75.973 399.406C75.1119 398.528 74.6515 398.027 74.6797 397.995C74.7102 397.964 75.227 398.406 76.1366 399.23C77.1229 400.132 78.4151 401.314 79.9747 402.739C83.2101 405.703 87.7039 409.774 92.7562 414.169C97.8075 418.558 102.459 422.441 105.845 425.232C107.471 426.577 108.82 427.692 109.849 428.544C110.791 429.329 111.301 429.78 111.275 429.814Z" fill="#455A64"/>
<path d="M63.7257 395.015C63.702 394.863 66.3958 394.597 69.5421 395.55C72.6974 396.479 74.8156 398.184 74.7152 398.3C74.6148 398.462 72.4142 397.041 69.3683 396.148C66.3337 395.224 63.7223 395.206 63.7257 395.015Z" fill="#455A64"/>
<path d="M68.9253 391.439C68.9794 391.291 70.9148 392.153 72.5049 394.165C74.113 396.163 74.5374 398.26 74.3828 398.281C74.2078 398.343 73.5477 396.439 72.0264 394.556C70.5289 392.653 68.8293 391.6 68.9253 391.439Z" fill="#455A64"/>
<path d="M43.3627 463.295C43.3311 463.224 44.0838 463.077 44.92 463.774C45.7405 464.438 46.4401 465.769 46.6647 467.321C46.8915 468.885 46.5473 470.321 46.114 471.234C45.6874 472.163 45.2168 472.599 45.1649 472.555C45.0803 472.496 45.4109 471.981 45.71 471.07C46.0181 470.17 46.263 468.842 46.0553 467.409C45.8477 465.984 45.271 464.75 44.6277 464.099C43.9867 463.421 43.3503 463.394 43.3627 463.295Z" fill="#263238"/>
<path d="M60.5683 349.458L82.0699 404.652L174.651 406.18L176.364 401.107L143.918 399.915L128.324 350.954L60.5683 349.458Z" fill="#455A64"/>
<path d="M103.803 373.353C102.616 372.537 100.42 372.864 99.3525 373.834C98.2827 374.804 97.9374 376.483 98.4802 377.828C99.023 379.173 100.392 380.116 101.824 380.193C103.347 380.277 104.934 379.311 105.361 377.829C105.786 376.347 105.313 374.134 103.803 373.353Z" fill="#EBEBEB"/>
<path d="M75.7701 452.619C75.7701 452.619 161.066 395.964 164.558 394.786C168.05 393.605 176.491 388.007 184.93 390.363C193.372 392.722 200.938 400.385 204.723 411.585C206.884 417.982 207.906 428.9 208.384 437.087C208.957 446.877 205.963 456.636 199.642 464.063C196.764 467.442 193.215 470.383 189.006 471.708C188.118 471.988 187.195 472.23 186.248 472.438C170.122 475.979 153.55 468.648 144.49 454.683L142.499 451.615C142.499 451.615 86.702 472.373 85.8285 472.078L75.7701 452.619Z" fill="#263238"/>
<path d="M181.294 437.024C181.294 437.024 181.139 437.104 180.827 437.235C180.489 437.37 180.026 437.556 179.431 437.795C178.171 438.286 176.356 438.995 174.023 439.904C169.279 441.713 162.434 444.325 153.926 447.57C145.39 450.795 135.165 454.629 123.692 458.856C112.219 463.08 99.5038 467.716 85.9255 472.372L85.6795 472.456L85.5587 472.222C83.4259 468.099 81.1767 463.749 78.8949 459.335C77.7302 457.084 76.5758 454.849 75.498 452.763L75.3671 452.51L75.6041 452.358C101.216 435.894 124.13 421.164 140.666 410.534C148.923 405.26 155.586 401.003 160.21 398.051C162.5 396.603 164.283 395.477 165.519 394.696C166.11 394.329 166.57 394.045 166.903 393.838C167.217 393.648 167.386 393.564 167.386 393.564C167.386 393.564 167.24 393.683 166.936 393.89C166.61 394.108 166.161 394.41 165.582 394.799C164.36 395.601 162.597 396.76 160.333 398.248C155.734 401.241 149.107 405.551 140.892 410.895C124.383 421.566 101.507 436.351 75.937 452.879L76.042 452.476C77.1197 454.561 78.2753 456.796 79.4399 459.047C81.7207 463.461 83.9687 467.811 86.0993 471.935L85.7314 471.785C99.3041 467.142 112.024 462.528 123.508 458.339C134.973 454.114 145.215 450.339 153.785 447.181C162.32 444.01 169.186 441.461 173.944 439.693C176.294 438.827 178.122 438.152 179.39 437.686C179.995 437.47 180.465 437.301 180.805 437.179C181.126 437.067 181.294 437.024 181.294 437.024Z" fill="#455A64"/>
<path d="M172.442 235.835C170.989 231.854 167.773 230.124 163.698 229.126C159.624 228.127 155.091 229.31 152.001 232.177C149.934 234.096 148.418 236.745 145.864 237.918C141.661 239.849 136.272 237.027 132.287 239.386C129.928 240.784 128.77 243.962 129.668 246.575C130.566 249.189 133.421 250.952 136.126 250.564C133.388 251.875 132.875 256.05 134.762 258.452C136.648 260.852 140.137 261.502 143.052 260.667C145.967 259.833 148.389 257.771 150.448 255.521C152.508 253.27 154.311 250.774 156.54 248.696C158.771 246.619 161.553 244.946 164.58 244.833C168.68 244.677 172.461 247.467 174.613 251.004C176.764 254.539 177.568 258.732 178.167 262.84C178.766 266.949 179.219 271.141 180.784 274.98C180.968 275.431 181.23 275.931 181.702 276.03C182.383 276.175 182.881 275.411 183.154 274.764C186.237 267.448 187.882 259.514 187.966 251.559C188.014 246.94 187.503 242.617 184.671 238.995C181.837 235.374 175.303 233.118 172.442 235.835Z" fill="#263238"/>
<path d="M182.06 254.271L188.33 300.413C189.396 308.259 183.762 315.413 175.971 316.103C168.697 316.749 162.206 311.492 161.219 304.168C160.749 300.695 160.353 297.799 160.281 297.445C160.281 297.445 148.531 297.957 146.113 286.447C144.945 280.885 143.46 269.231 142.238 258.673C140.925 247.333 148.446 236.876 159.502 234.639L160.601 234.416C172.593 232.719 180.717 242.084 182.06 254.271Z" fill="#FFBE9D"/>
<path d="M160.229 297.282C160.229 297.282 167.546 296.419 174.24 290.002C174.24 290.002 172.367 299.016 160.792 300.278L160.229 297.282Z" fill="#EB996E"/>
<path d="M147.081 265.729C147.223 266.605 148.072 267.207 148.98 267.074C149.882 266.941 150.504 266.126 150.362 265.249C150.221 264.373 149.372 263.77 148.468 263.902C147.561 264.035 146.94 264.852 147.081 265.729Z" fill="#263238"/>
<path d="M145.803 263.84C146.047 264.013 147.096 262.841 148.849 262.49C150.594 262.116 152.06 262.769 152.206 262.513C152.281 262.397 151.999 262.052 151.358 261.753C150.726 261.452 149.708 261.244 148.618 261.469C147.528 261.696 146.691 262.289 146.247 262.811C145.79 263.339 145.685 263.764 145.803 263.84Z" fill="#263238"/>
<path d="M164.373 262.856C164.514 263.733 165.364 264.334 166.27 264.201C167.174 264.069 167.796 263.253 167.653 262.376C167.512 261.5 166.663 260.898 165.759 261.03C164.852 261.163 164.232 261.98 164.373 262.856Z" fill="#263238"/>
<path d="M163.079 260.688C163.323 260.862 164.375 259.689 166.125 259.34C167.871 258.965 169.336 259.617 169.483 259.361C169.557 259.246 169.277 258.901 168.634 258.601C168.002 258.302 166.984 258.093 165.894 258.318C164.805 258.544 163.967 259.137 163.523 259.66C163.068 260.186 162.962 260.613 163.079 260.688Z" fill="#263238"/>
<path d="M159.319 275.123C159.306 275.021 158.181 275.05 156.373 275.179C155.916 275.223 155.475 275.218 155.34 274.925C155.169 274.619 155.26 274.093 155.372 273.522C155.578 272.341 155.79 271.103 156.015 269.807C156.882 264.528 157.415 260.222 157.205 260.188C156.994 260.154 156.121 264.408 155.253 269.687C155.05 270.988 154.854 272.226 154.67 273.412C154.603 273.96 154.427 274.603 154.789 275.237C154.976 275.55 155.353 275.729 155.656 275.748C155.959 275.779 156.212 275.734 156.435 275.703C158.23 275.439 159.332 275.225 159.319 275.123Z" fill="#263238"/>
<path d="M164.714 275.307C164.426 275.348 164.802 277.273 163.445 278.968C162.092 280.666 160.023 280.86 160.061 281.134C160.058 281.259 160.587 281.416 161.445 281.266C162.291 281.126 163.462 280.604 164.291 279.568C165.119 278.529 165.325 277.326 165.234 276.522C165.148 275.703 164.841 275.27 164.714 275.307Z" fill="#263238"/>
<path d="M161.255 253.831C161.524 254.278 163.227 253.697 165.33 253.531C167.431 253.324 169.208 253.597 169.395 253.11C169.475 252.878 169.097 252.483 168.334 252.152C167.579 251.82 166.433 251.592 165.172 251.702C163.912 251.816 162.823 252.242 162.134 252.702C161.441 253.162 161.137 253.618 161.255 253.831Z" fill="#263238"/>
<path d="M145.434 258.578C145.822 258.918 146.945 258.256 148.392 257.942C149.827 257.579 151.124 257.671 151.324 257.194C151.407 256.964 151.134 256.599 150.522 256.326C149.919 256.054 148.973 255.923 147.982 256.155C146.991 256.388 146.2 256.929 145.777 257.443C145.346 257.96 145.26 258.41 145.434 258.578Z" fill="#263238"/>
<path d="M182.816 263.003C182.993 262.879 190.181 259.074 191.49 267.013C192.797 274.95 184.657 274.643 184.606 274.417C184.555 274.192 182.816 263.003 182.816 263.003Z" fill="#FFBE9D"/>
<path d="M186.505 271.005C186.535 270.975 186.658 271.078 186.905 271.147C187.148 271.213 187.547 271.219 187.93 270.995C188.708 270.548 189.186 269.099 188.987 267.662C188.889 266.936 188.626 266.273 188.28 265.746C187.945 265.206 187.507 264.863 187.078 264.858C186.647 264.832 186.393 265.134 186.334 265.374C186.265 265.613 186.341 265.763 186.302 265.784C186.284 265.807 186.112 265.68 186.121 265.341C186.128 265.177 186.189 264.975 186.348 264.792C186.51 264.604 186.773 264.479 187.07 264.461C187.681 264.402 188.317 264.873 188.699 265.451C189.114 266.027 189.425 266.769 189.537 267.584C189.75 269.192 189.188 270.826 188.109 271.349C187.581 271.588 187.094 271.497 186.825 271.349C186.551 271.194 186.481 271.025 186.505 271.005Z" fill="#EB996E"/>
<path d="M139.353 256.765C144.639 257.102 150.023 254.675 153.314 250.472C155.615 247.532 157.078 243.678 160.339 241.892C162.532 240.691 165.232 240.677 167.609 241.442C169.987 242.206 172.083 243.685 173.96 245.349C172.915 251.658 175.685 257.904 178.386 263.688C178.684 264.326 179.025 265.012 179.651 265.324C180.714 265.855 181.982 265.015 182.619 264.001C183.636 262.379 183.755 260.352 183.717 258.43C183.631 254.054 182.872 249.652 181.117 245.651C179.362 241.65 176.572 238.06 172.922 235.714C168.36 232.782 162.613 231.944 157.331 233.1C152.05 234.254 147.253 237.319 143.663 241.408C141.998 243.305 140.548 245.483 139.981 247.956" fill="#263238"/>
<path d="M455.182 442.919C455.192 442.913 455.126 442.751 454.984 442.437C454.826 442.095 454.614 441.639 454.345 441.056C453.802 439.837 453.095 437.989 452.466 435.53C451.223 430.616 450.789 423.107 452.626 414.187C453.48 409.721 454.856 404.932 456.535 399.852C458.191 394.765 460.111 389.368 461.681 383.531C463.233 377.71 464.458 371.391 464.222 364.766C463.983 358.129 462.043 351.504 459.909 344.908C457.78 338.303 455.577 331.847 454.917 325.352C454.171 318.869 455.541 312.506 458.458 307.29C461.283 302.021 464.836 297.514 467.496 292.844C470.198 288.192 471.887 283.406 472.929 278.956C474.947 269.984 474.24 262.424 473.273 257.441C472.225 252.432 471.056 249.843 471.056 249.843C471.045 249.847 471.09 250.018 471.188 250.347C471.298 250.708 471.446 251.19 471.636 251.804C472.027 253.084 472.533 254.996 473.014 257.491C473.897 262.464 474.522 269.972 472.463 278.845C471.401 283.246 469.704 287.968 467.012 292.557C464.358 297.171 460.788 301.66 457.908 306.992C454.93 312.263 453.498 318.834 454.258 325.42C454.921 332.024 457.141 338.523 459.265 345.12C461.399 351.711 463.316 358.266 463.559 364.792C463.802 371.315 462.606 377.573 461.08 383.367C459.535 389.173 457.636 394.573 456.002 399.674C454.342 404.769 452.985 409.598 452.156 414.095C450.368 423.08 450.878 430.665 452.211 435.596C452.884 438.065 453.636 439.908 454.222 441.115C454.517 441.686 454.75 442.134 454.924 442.469C455.085 442.773 455.172 442.925 455.182 442.919Z" fill="#263238"/>
<path d="M463.884 297.45C463.884 297.45 469.285 279.962 459.597 269.722C459.256 269.363 458.658 269.532 458.57 270.022C458.053 272.91 457.407 281.708 463.884 297.45Z" fill="#F9E547"/>
<path d="M460.648 275.55C460.557 275.568 460.711 276.799 461.013 278.776C461.367 280.998 461.783 283.607 462.245 286.489C462.696 289.373 463.105 291.98 463.454 294.202C463.749 296.178 463.927 297.403 464.026 297.395C464.113 297.388 464.104 296.144 463.929 294.144C463.75 292.145 463.402 289.397 462.912 286.38C462.426 283.362 461.905 280.644 461.483 278.687C461.061 276.729 460.741 275.53 460.648 275.55Z" fill="#263238"/>
<path d="M457.539 338.698C457.539 338.698 454.236 320.681 440.945 316.218C440.477 316.062 440.027 316.496 440.176 316.97C441.052 319.769 444.543 327.851 457.539 338.698Z" fill="#F9E547"/>
<path d="M444.565 320.871C444.493 320.932 445.198 321.945 446.376 323.552C447.717 325.347 449.29 327.457 451.028 329.786C452.759 332.121 454.325 334.231 455.659 336.031C456.833 337.637 457.555 338.636 457.639 338.582C457.713 338.535 457.13 337.439 456.052 335.753C454.971 334.074 453.394 331.807 451.568 329.371C449.744 326.936 448.029 324.781 446.751 323.25C445.474 321.719 444.637 320.812 444.565 320.871Z" fill="#263238"/>
<path d="M461.132 383.894C461.132 383.894 463.138 365.683 451.7 357.503C451.298 357.216 450.742 357.499 450.748 357.997C450.785 360.932 451.807 369.692 461.132 383.894Z" fill="#F9E547"/>
<path d="M453.83 363.021C453.743 363.056 454.126 364.235 454.793 366.118C455.562 368.231 456.462 370.711 457.457 373.452C458.444 376.194 459.337 378.676 460.097 380.79C460.76 382.671 461.165 383.84 461.26 383.813C461.344 383.79 461.101 382.569 460.552 380.64C460 378.714 459.141 376.083 458.092 373.215C457.046 370.346 456.023 367.78 455.24 365.941C454.457 364.1 453.915 362.986 453.83 363.021Z" fill="#263238"/>
<path d="M451.119 429.355C451.119 429.355 452.48 411.084 440.759 403.324C440.347 403.051 439.802 403.354 439.826 403.852C439.966 406.782 441.297 415.5 451.119 429.355Z" fill="#F9E547"/>
<path d="M443.083 408.76C442.998 408.799 443.422 409.962 444.157 411.82C444.998 413.905 445.986 416.35 447.078 419.053C448.16 421.758 449.141 424.206 449.975 426.29C450.704 428.147 451.149 429.3 451.244 429.269C451.328 429.243 451.041 428.032 450.425 426.124C449.805 424.218 448.853 421.621 447.703 418.792C446.556 415.965 445.444 413.437 444.595 411.626C443.747 409.816 443.168 408.721 443.083 408.76Z" fill="#263238"/>
<path d="M471.645 282.085C471.645 282.085 487.685 273.602 488 259.426C488.01 258.927 487.468 258.619 487.064 258.901C484.68 260.571 478.075 266.321 471.645 282.085Z" fill="#F9E547"/>
<path d="M484.669 264.295C484.591 264.242 483.841 265.223 482.671 266.835C481.368 268.659 479.839 270.801 478.15 273.167C476.454 275.527 474.919 277.663 473.611 279.482C472.439 281.089 471.709 282.081 471.785 282.146C471.85 282.204 472.714 281.319 473.988 279.782C475.258 278.241 476.934 276.05 478.698 273.567C480.463 271.086 481.995 268.795 483.066 267.109C484.135 265.424 484.747 264.348 484.669 264.295Z" fill="#263238"/>
<path d="M454.422 319.644C454.422 319.644 470.941 312.163 472.105 298.031C472.146 297.535 471.624 297.193 471.203 297.451C468.724 298.971 461.784 304.304 454.422 319.644Z" fill="#F9E547"/>
<path d="M468.488 302.688C468.414 302.63 467.606 303.563 466.342 305.1C464.931 306.841 463.277 308.884 461.449 311.141C459.614 313.394 457.955 315.43 456.541 317.166C455.275 318.699 454.486 319.644 454.557 319.713C454.619 319.775 455.534 318.945 456.897 317.488C458.258 316.03 460.063 313.946 461.972 311.576C463.883 309.208 465.55 307.015 466.719 305.398C467.888 303.782 468.563 302.745 468.488 302.688Z" fill="#263238"/>
<path d="M463.927 361.538C463.927 361.538 475.269 347.26 469.949 334.142C469.761 333.682 469.143 333.618 468.885 334.042C467.36 336.539 463.582 344.487 463.927 361.538Z" fill="#F9E547"/>
<path d="M468.823 339.956C468.731 339.939 468.431 341.141 467.997 343.093C467.525 345.294 466.97 347.876 466.358 350.73C465.738 353.58 465.177 356.159 464.699 358.357C464.261 360.304 463.983 361.508 464.078 361.539C464.162 361.564 464.603 360.403 465.161 358.477C465.718 356.551 466.386 353.864 467.02 350.874C467.655 347.884 468.153 345.163 468.467 343.185C468.781 341.207 468.916 339.973 468.823 339.956Z" fill="#263238"/>
<path d="M452.692 410.839C452.692 410.839 469.085 403.078 470.014 388.929C470.046 388.433 469.519 388.1 469.103 388.364C466.648 389.925 459.799 395.377 452.692 410.839Z" fill="#F9E547"/>
<path d="M466.476 393.646C466.4 393.59 465.608 394.535 464.369 396.095C462.989 397.859 461.367 399.93 459.577 402.219C457.779 404.501 456.154 406.567 454.769 408.326C453.528 409.879 452.755 410.838 452.827 410.906C452.892 410.967 453.793 410.121 455.132 408.642C456.469 407.16 458.238 405.046 460.108 402.644C461.979 400.244 463.608 398.023 464.75 396.386C465.893 394.751 466.55 393.702 466.476 393.646Z" fill="#263238"/>
<path d="M420.041 338.796C420.025 338.797 420.019 338.934 420.021 339.2C420.029 339.518 420.038 339.904 420.049 340.371C420.098 341.473 420.162 342.959 420.243 344.814C420.455 348.72 420.749 354.167 421.102 360.68V360.696L421.106 360.719C422.277 367.348 425.611 374.698 430.091 381.833C433.377 387.09 436.821 391.868 439.791 396.312C442.781 400.745 445.305 404.85 447.065 408.486C448.835 412.119 449.864 415.24 450.466 417.42C450.755 418.515 450.971 419.369 451.096 419.954C451.231 420.534 451.312 420.839 451.336 420.835C451.359 420.83 451.321 420.519 451.23 419.926C451.148 419.332 450.973 418.466 450.722 417.353C450.195 415.14 449.226 411.966 447.495 408.276C445.776 404.58 443.276 400.42 440.308 395.959C437.358 391.483 433.932 386.698 430.664 381.469C426.207 374.368 422.891 367.131 421.676 360.607L421.681 360.644C421.229 354.136 420.851 348.695 420.582 344.792C420.433 342.941 420.314 341.458 420.227 340.36C420.181 339.894 420.143 339.512 420.111 339.194C420.081 338.93 420.057 338.795 420.041 338.796Z" fill="#263238"/>
<path d="M429.802 380.469C429.802 380.469 422.86 363.547 431.592 352.462C431.899 352.073 432.51 352.187 432.641 352.667C433.415 355.495 434.845 364.198 429.802 380.469Z" fill="#F9E547"/>
<path d="M431.066 358.362C430.973 358.352 430.76 359.575 430.516 361.564C430.27 363.551 429.995 366.305 429.78 369.354C429.562 372.405 429.461 375.174 429.463 377.181C429.466 379.189 429.569 380.429 429.656 380.428C429.755 380.426 429.823 379.191 429.94 377.196C430.089 374.951 430.263 372.316 430.455 369.403C430.655 366.49 430.837 363.855 430.993 361.608C431.115 359.612 431.159 358.372 431.066 358.362Z" fill="#263238"/>
<g opacity="0.300003">
<g opacity="0.300003">
<path opacity="0.300003" d="M430.023 380.593C430.023 380.593 423.114 367.942 430.869 352.321C431.409 351.931 432.201 351.84 432.431 352.321C433.794 355.154 434.678 363.452 430.023 380.593Z" fill="#F9E547"/>
</g>
</g>
<path d="M451.304 421.248C451.304 421.248 445.739 403.811 455.332 393.478C455.668 393.116 456.268 393.281 456.361 393.77C456.905 396.653 457.634 405.442 451.304 421.248Z" fill="#F9E547"/>
<path d="M454.335 399.316C454.242 399.298 453.933 400.5 453.53 402.463C453.126 404.424 452.631 407.146 452.172 410.167C451.711 413.19 451.389 415.943 451.229 417.943C451.072 419.944 451.076 421.188 451.162 421.194C451.262 421.199 451.428 419.973 451.704 417.996C452.031 415.77 452.416 413.158 452.842 410.271C453.275 407.386 453.667 404.771 454.002 402.546C454.284 400.566 454.427 399.335 454.335 399.316Z" fill="#263238"/>
<g opacity="0.300003">
<g opacity="0.300003">
<path opacity="0.300003" d="M451.304 421.248C451.304 421.248 445.739 403.811 455.332 393.478C455.668 393.116 456.268 393.281 456.361 393.77C456.905 396.653 457.634 405.442 451.304 421.248Z" fill="#F9E547"/>
</g>
</g>
<path d="M420.96 359.79C420.96 359.79 406.136 349.281 407.632 335.182C407.684 334.686 408.262 334.45 408.627 334.784C410.778 336.752 416.595 343.317 420.96 359.79Z" fill="#F9E547"/>
<g opacity="0.300003">
<g opacity="0.300003">
<path opacity="0.300003" d="M420.96 359.79C420.96 359.79 406.136 349.281 407.632 335.182C407.684 334.686 408.262 334.45 408.627 334.784C410.778 336.752 416.595 343.317 420.96 359.79Z" fill="#F9E547"/>
</g>
</g>
<path d="M410.314 340.446C410.231 340.488 410.699 341.636 411.546 343.447C412.392 345.258 413.619 347.731 415.053 350.421C416.485 353.114 417.868 355.506 418.932 357.199C419.998 358.891 420.742 359.882 420.815 359.833C420.898 359.778 420.301 358.699 419.342 356.951C418.278 354.977 417.029 352.658 415.649 350.095C414.274 347.529 413.032 345.205 411.972 343.226C411.017 341.473 410.398 340.404 410.314 340.446Z" fill="#263238"/>
<path d="M445.327 403.961C445.327 403.961 427.448 401.138 422.658 387.813C422.49 387.345 422.905 386.877 423.378 387.014C426.165 387.819 434.244 391.12 445.327 403.961Z" fill="#F9E547"/>
<g opacity="0.300003">
<g opacity="0.300003">
<path opacity="0.300003" d="M448.22 381.709C448.22 381.709 430.341 378.886 425.551 365.56C425.383 365.093 425.799 364.624 426.271 364.762C429.058 365.567 437.137 368.868 448.22 381.709Z" fill="#F9E547"/>
</g>
</g>
<path d="M427.356 391.344C427.299 391.418 428.219 392.24 429.767 393.489C431.313 394.738 433.491 396.411 435.949 398.185C438.406 399.965 440.687 401.495 442.378 402.541C444.072 403.584 445.17 404.142 445.215 404.065C445.266 403.979 444.26 403.277 442.64 402.135C440.826 400.837 438.696 399.312 436.342 397.628C433.992 395.937 431.865 394.405 430.054 393.1C428.434 391.952 427.412 391.269 427.356 391.344Z" fill="#263238"/>
<path d="M462.383 437.281L467.599 472.826H435.097L439.311 437.281H462.383Z" fill="#455A64"/>
<path d="M438.011 448.295C438.011 448.485 443.879 448.638 451.116 448.638C458.356 448.638 464.224 448.485 464.224 448.295C464.224 448.106 458.356 447.952 451.116 447.952C443.879 447.952 438.011 448.106 438.011 448.295Z" fill="#263238"/>
<path d="M437.367 451.124C437.367 451.313 443.428 451.467 450.902 451.467C458.379 451.467 464.439 451.313 464.439 451.124C464.439 450.934 458.379 450.781 450.902 450.781C443.428 450.781 437.367 450.934 437.367 451.124Z" fill="#263238"/>
</svg>
